<?xml version="1.0" encoding="UTF-8"?>
<svg id="Capa_1" data-name="Capa 1" xmlns="http://www.w3.org/2000/svg" viewBox="0 0 348.44402 555.00764">
  <defs>
    <style>
      .cls-1 {
        fill: #12a89d;
      }
    </style>
  </defs>
  <path class="cls-1" d="m174.6168,0h-.79219C77.97605,0,0,77.94999,0,173.76205c0,62.80455,28.60225,145.69141,85.01197,246.36215,41.82192,74.634,84.23018,131.79551,84.65495,132.36356,1.18048,1.5857,3.04107,2.51988,5.01243,2.51988.05603,0,.11336,0,.16939-.00262,2.0339-.05603,3.91144-1.09709,5.03979-2.79222.41824-.63322,42.52423-64.21824,84.06212-141.98972,56.06572-104.96917,84.49337-184.52828,84.49337-236.46107-.00394-95.81332-77.98127-173.76201-173.82722-173.76201Zm80.23534,178.00835c0,44.46169-36.17106,80.63146-80.63275,80.63146s-80.63146-36.17106-80.63146-80.63146,36.17106-80.63146,80.63146-80.63146c44.46171,0,80.63275,36.17107,80.63275,80.63146Z"/>
</svg>