<?xml version="1.0" standalone="no"?>
<!DOCTYPE svg PUBLIC "-//W3C//DTD SVG 20010904//EN"
 "http://www.w3.org/TR/2001/REC-SVG-20010904/DTD/svg10.dtd">
<svg version="1.0" xmlns="http://www.w3.org/2000/svg"
 width="4167.000000pt" height="4167.000000pt" viewBox="0 0 4167.000000 4167.000000"
 preserveAspectRatio="xMidYMid meet">
<metadata>
Created by potrace 1.14, written by Peter Selinger 2001-2017
</metadata>
<g transform="translate(0.000000,4167.000000) scale(0.100000,-0.100000)"
fill="#000000" stroke="none">
<path d="M22575 41658 c-1243 -139 -2610 -629 -4115 -1476 -1362 -767 -2849
-1851 -4320 -3151 -1014 -896 -2124 -1998 -3084 -3061 -1395 -1543 -2638
-3137 -3729 -4780 -184 -277 -194 -290 -351 -450 -1079 -1104 -1980 -2210
-2608 -3200 -1012 -1596 -1530 -3107 -1672 -4880 -50 -615 -52 -1425 -6 -2155
57 -900 163 -1837 376 -3310 41 -286 82 -573 92 -639 10 -76 21 -120 30 -123
7 -3 15 -3 18 0 3 2 -27 220 -65 483 -315 2149 -431 3318 -447 4479 -25 1780
251 3213 896 4645 620 1376 1665 2840 3110 4359 332 348 334 350 309 306 -12
-22 -30 -51 -39 -65 -51 -75 -339 -543 -487 -790 -340 -571 -691 -1206 -933
-1690 -35 -70 -118 -206 -190 -310 -1227 -1787 -1892 -3484 -2099 -5360 -54
-487 -74 -878 -74 -1460 1 -1213 111 -2353 458 -4735 41 -280 77 -520 80 -533
6 -24 35 -31 35 -7 0 8 -11 88 -25 177 -102 676 -238 1660 -310 2238 -233
1888 -266 3241 -109 4485 205 1626 767 3129 1749 4680 117 184 300 457 292
435 -3 -8 -46 -101 -96 -207 -713 -1513 -1134 -2900 -1231 -4058 -7 -75 -30
-216 -55 -335 -298 -1394 -343 -2835 -149 -4750 59 -585 134 -1171 274 -2150
137 -948 176 -1209 183 -1216 16 -16 29 11 24 50 -4 22 -47 316 -96 651 -356
2414 -465 3527 -465 4760 1 911 67 1650 218 2415 l42 215 7 -210 c16 -502 90
-890 238 -1265 l50 -125 -16 -160 c-77 -800 -80 -1709 -9 -2690 55 -770 164
-1695 340 -2895 137 -938 205 -1388 212 -1412 5 -21 11 -25 21 -19 12 8 8 52
-28 293 -385 2586 -472 3317 -543 4553 -17 301 -17 1336 0 1610 15 237 49 645
54 650 2 2 99 -193 216 -433 l213 -436 -13 -205 c-16 -272 -16 -1282 0 -1596
48 -914 135 -1740 312 -2985 59 -413 305 -2060 316 -2113 3 -15 12 -27 21 -27
20 0 26 -46 -117 903 -350 2318 -454 3224 -501 4367 -11 278 -6 1313 7 1509
l6 84 215 -424 216 -424 2 -460 c7 -1126 96 -2164 321 -3720 35 -246 357
-2360 379 -2492 7 -41 35 -45 35 -6 0 15 -74 509 -165 1097 -357 2318 -449
3088 -515 4291 -15 272 -25 1203 -13 1190 6 -5 105 -195 220 -420 l210 -411 7
-224 c41 -1325 155 -2326 537 -4715 66 -412 147 -923 179 -1134 33 -211 61
-386 63 -388 12 -11 36 12 32 31 -2 11 -21 129 -40 261 -20 132 -92 591 -161
1020 -345 2157 -448 2946 -523 3995 -27 372 -58 1070 -48 1060 3 -3 101 -192
220 -420 l215 -415 6 -110 c57 -934 162 -1861 347 -3040 27 -176 123 -763 214
-1305 90 -542 189 -1145 219 -1340 31 -195 58 -370 61 -388 4 -24 11 -32 26
-32 17 0 20 5 15 27 -3 16 -26 163 -51 328 -26 165 -111 687 -190 1160 -175
1048 -239 1439 -304 1875 -134 888 -229 1724 -275 2400 -9 124 -18 249 -20
278 -3 28 -3 52 -1 52 1 0 100 -187 219 -415 l217 -416 29 -288 c108 -1062
229 -1866 565 -3761 159 -898 220 -1256 275 -1605 22 -143 43 -275 45 -292 4
-24 11 -33 25 -33 11 0 20 2 20 5 0 49 -165 1028 -320 1900 -326 1835 -458
2699 -554 3640 -14 138 -28 270 -31 295 -4 29 -2 40 3 30 5 -8 104 -196 221
-417 l211 -402 30 -226 c125 -938 254 -1704 554 -3280 206 -1083 340 -1831
390 -2188 7 -44 25 -62 40 -38 16 25 -133 876 -389 2226 -185 972 -268 1431
-361 1990 -68 412 -184 1195 -199 1340 l-6 60 20 -35 c10 -19 107 -201 216
-405 179 -338 198 -377 211 -450 7 -44 43 -253 79 -465 119 -694 211 -1170
610 -3125 132 -646 229 -1162 291 -1541 44 -270 48 -291 66 -286 16 4 18 11
14 41 -86 562 -175 1028 -471 2476 -187 915 -287 1419 -379 1925 -79 434 -158
901 -153 907 3 2 100 -175 216 -394 l212 -398 90 -445 c123 -607 217 -1043
445 -2070 325 -1458 433 -1975 520 -2502 33 -201 39 -228 56 -228 23 0 23 -9
-7 178 -87 535 -194 1055 -529 2557 -229 1030 -506 2326 -506 2373 0 4 98
-178 219 -403 l218 -410 72 -315 c87 -378 254 -1078 426 -1780 403 -1647 541
-2267 626 -2812 8 -54 16 -78 26 -78 25 0 24 24 -2 181 -90 542 -219 1120
-556 2499 -321 1310 -514 2128 -506 2136 2 2 97 -169 211 -381 l207 -386 80
-307 c94 -359 133 -508 399 -1497 319 -1189 443 -1670 549 -2135 45 -198 123
-594 142 -716 11 -71 14 -81 31 -76 23 6 23 3 -7 174 -95 554 -234 1120 -695
2838 -291 1081 -410 1533 -406 1537 2 2 96 -169 209 -379 l206 -383 164 -560
c91 -308 242 -819 335 -1135 443 -1495 640 -2245 713 -2702 10 -67 15 -78 32
-78 18 0 19 4 13 52 -13 102 -87 455 -145 693 -118 478 -294 1107 -631 2245
-305 1029 -379 1284 -377 1286 1 2 93 -165 203 -369 l201 -372 301 -925 c450
-1383 575 -1778 719 -2274 95 -328 194 -722 224 -894 20 -110 27 -132 42 -132
24 0 22 23 -14 202 -102 508 -295 1156 -876 2938 -274 841 -280 858 -271 850
7 -6 315 -574 358 -658 15 -31 146 -385 290 -787 677 -1891 927 -2649 1016
-3085 32 -156 30 -151 50 -143 23 9 13 74 -47 315 -120 478 -330 1114 -858
2589 -120 338 -233 652 -250 698 -17 47 -29 86 -28 88 4 4 323 -581 350 -641
23 -51 507 -1282 657 -1671 257 -665 455 -1208 565 -1545 57 -177 135 -464
135 -500 0 -14 7 -20 24 -20 23 0 23 1 14 53 -44 242 -206 728 -511 1537 -122
323 -362 943 -571 1474 -69 176 -125 321 -123 322 1 1 73 -126 158 -284 133
-244 187 -357 358 -756 808 -1878 1159 -2757 1197 -2998 6 -33 10 -39 28 -36
26 4 25 17 -11 148 -85 311 -434 1180 -1062 2639 -55 129 -99 236 -97 238 2 2
57 -94 122 -214 71 -130 269 -539 490 -1013 685 -1468 968 -2104 1059 -2383
18 -54 35 -98 39 -97 3 0 12 0 20 0 18 0 8 46 -38 172 -104 286 -489 1148
-1000 2237 -53 113 -95 206 -93 207 9 9 494 -941 1085 -2121 366 -733 516
-1044 549 -1135 14 -40 22 -50 40 -50 13 0 23 3 23 6 0 33 -212 477 -562 1179
-138 275 -246 496 -241 490 6 -5 222 -395 480 -865 853 -1551 825 -1501 848
-1498 11 2 19 8 18 13 -1 6 -57 109 -124 230 -1010 1824 -1930 3507 -2136
3910 -500 976 -834 1652 -1171 2375 -442 949 -449 966 -728 1623 -543 1279
-548 1290 -877 2167 -399 1063 -468 1258 -726 2070 -313 985 -389 1246 -560
1929 -288 1151 -375 1566 -515 2471 -134 861 -177 1272 -216 2055 -43 874 -39
1290 21 2060 71 928 149 1443 345 2285 202 870 372 1407 709 2245 338 840 608
1399 1038 2150 769 1344 1434 2268 2421 3365 360 400 1031 1083 1426 1451 849
790 1750 1509 2740 2185 737 504 1278 821 2090 1228 860 429 1432 659 2253
902 761 225 1328 331 2137 401 291 25 918 25 1195 0 380 -34 783 -91 1050
-149 373 -80 1009 -287 1385 -451 340 -147 867 -439 1235 -682 345 -228 872
-653 1228 -989 242 -228 708 -721 1018 -1076 926 -1061 1825 -2312 2658 -3698
222 -370 406 -688 436 -756 41 -91 267 -916 450 -1641 298 -1183 571 -2477
738 -3497 40 -247 43 -258 64 -258 19 0 22 4 18 28 -3 15 -25 151 -50 302 -65
395 -113 650 -226 1214 -54 274 -98 501 -96 502 13 13 270 -1297 352 -1788 19
-117 38 -225 41 -240 5 -27 27 -37 38 -19 15 23 -167 1012 -315 1719 -39 184
-69 336 -66 338 15 15 314 -1480 393 -1968 9 -60 20 -108 23 -108 3 0 12 4 20
9 11 7 10 31 -9 142 -64 390 -220 1194 -320 1653 -40 179 -44 203 -36 195 7
-6 159 -711 225 -1044 62 -311 155 -811 167 -902 6 -46 10 -53 29 -53 17 0 21
5 19 23 -45 286 -182 995 -280 1452 -35 164 -64 304 -63 310 4 53 243 -1085
324 -1545 46 -267 42 -250 65 -250 11 0 20 4 20 8 0 47 -149 811 -251 1291
-44 205 -78 375 -76 377 11 11 259 -1170 328 -1558 19 -109 25 -128 41 -128
11 0 18 7 18 19 0 61 -159 855 -277 1381 -84 376 -98 445 -88 425 27 -55 326
-1443 376 -1745 13 -83 18 -93 41 -85 13 5 13 18 -4 113 -59 327 -187 937
-294 1395 -31 132 -54 241 -51 243 13 14 318 -1365 381 -1727 5 -31 10 -36 26
-32 11 3 20 8 20 10 0 45 -216 1059 -301 1412 -21 90 -39 168 -38 175 4 49
286 -1187 345 -1511 14 -78 20 -93 35 -93 11 0 19 7 19 15 0 45 -147 733 -251
1174 -38 162 -67 296 -65 298 11 11 268 -1104 333 -1447 7 -35 13 -45 28 -45
25 0 27 -13 -41 310 -65 308 -153 689 -235 1019 -33 131 -58 240 -56 242 12
13 294 -1162 367 -1528 11 -54 29 -74 44 -49 10 16 -133 656 -255 1145 -33
131 -58 240 -56 242 12 13 337 -1328 337 -1390 0 -18 8 -20 29 -7 17 11 -42
289 -185 864 -52 209 -93 382 -91 384 9 8 236 -896 299 -1187 12 -55 18 -66
37 -68 18 -3 22 0 17 15 -2 10 -23 99 -46 198 -22 99 -83 348 -135 554 -52
206 -93 376 -91 378 6 6 190 -694 261 -999 33 -138 40 -158 57 -158 17 0 19 5
13 33 -17 83 -150 618 -205 822 -33 125 -59 229 -57 231 7 8 189 -664 258
-953 32 -135 50 -169 65 -129 6 16 -114 491 -213 846 -80 285 -77 276 -70 270
13 -12 209 -712 308 -1102 7 -28 13 -35 28 -31 18 5 16 14 -25 176 -59 229
-104 393 -170 621 -30 104 -53 191 -51 193 5 5 151 -487 228 -769 52 -191 65
-228 81 -228 10 0 18 1 18 3 0 13 -113 420 -176 632 -42 143 -78 269 -80 280
-15 77 189 -585 252 -817 23 -85 33 -108 47 -108 9 0 17 5 17 11 0 17 -100
367 -170 593 -33 109 -59 200 -57 202 4 4 103 -301 193 -600 35 -114 65 -211
68 -213 3 -3 12 -3 20 0 16 6 6 44 -130 477 -40 129 -71 236 -69 238 4 4 209
-615 227 -685 6 -24 13 -43 17 -43 32 1 28 24 -52 275 -46 143 -93 286 -105
318 -12 32 -22 63 -21 70 0 17 95 -247 170 -472 34 -102 64 -189 68 -193 3 -4
12 -3 20 1 14 9 -19 119 -135 445 -30 83 -52 151 -50 153 3 3 118 -301 197
-519 19 -54 36 -88 45 -88 8 0 14 6 14 14 0 30 -229 639 -412 1096 -191 475
-337 817 -640 1500 -616 1386 -1190 2764 -2491 5985 -344 852 -470 1155 -630
1520 -827 1885 -1769 3476 -2776 4690 -1087 1309 -2253 2211 -3512 2715 -369
147 -839 286 -1153 340 -277 47 -333 50 -896 49 -294 -1 -571 -6 -615 -11z
m940 -18 c606 -36 1191 -180 1830 -450 1193 -505 2307 -1377 3340 -2615 427
-512 855 -1108 1252 -1745 128 -206 351 -579 383 -640 30 -60 -14 7 -100 150
-952 1584 -2084 2878 -3254 3720 -898 646 -1913 1087 -2810 1220 -444 66
-1047 68 -1546 4 -1327 -168 -2829 -751 -4450 -1724 -3220 -1934 -6774 -5347
-9550 -9174 -141 -194 -151 -204 -380 -420 -308 -289 -440 -416 -704 -676
-120 -118 -215 -208 -211 -200 19 35 425 634 580 855 2226 3174 5039 6175
7795 8316 1995 1550 3886 2600 5555 3084 796 231 1595 335 2270 295z m435
-374 c500 -60 900 -165 1420 -371 1850 -733 3542 -2387 4997 -4884 143 -245
140 -240 126 -226 -6 6 -48 73 -93 150 -496 834 -1087 1648 -1688 2325 -206
231 -685 709 -894 892 -581 507 -1104 868 -1693 1169 -636 325 -1230 525
-1805 608 -277 40 -377 46 -775 45 -421 0 -597 -13 -965 -70 -2425 -375 -5368
-2067 -8438 -4852 -740 -671 -1670 -1599 -2388 -2382 -570 -622 -1134 -1280
-1684 -1965 l-257 -320 -349 -306 c-192 -168 -446 -393 -564 -499 -118 -106
-228 -205 -244 -219 l-29 -26 20 30 c12 17 95 130 185 252 2012 2727 4479
5303 6895 7200 2625 2062 5069 3252 7078 3447 241 24 234 24 635 21 271 -2
412 -7 510 -19z m190 -355 c409 -49 731 -124 1117 -260 900 -317 1741 -829
2563 -1559 205 -182 629 -604 820 -817 566 -631 1080 -1324 1583 -2133 124
-200 322 -530 345 -577 21 -42 -30 34 -103 155 -441 725 -951 1434 -1445 2010
-388 452 -851 913 -1256 1251 -883 738 -1862 1268 -2772 1500 -445 114 -841
155 -1382 146 -440 -8 -771 -44 -1220 -133 -2611 -520 -5803 -2518 -8986
-5625 -682 -665 -1484 -1514 -2039 -2158 -44 -51 -125 -129 -180 -174 -182
-149 -697 -578 -925 -772 -124 -105 -232 -195 -240 -200 -8 -5 1 11 20 36
1714 2148 3697 4155 5635 5705 2699 2158 5199 3395 7280 3604 281 28 282 28
665 25 274 -3 381 -8 520 -24z m185 -350 c501 -61 920 -173 1410 -376 766
-318 1465 -764 2185 -1394 186 -162 685 -659 867 -861 616 -688 1184 -1469
1724 -2370 145 -241 208 -351 192 -335 -5 6 -72 111 -148 235 -1422 2316
-3075 3842 -4896 4521 -921 343 -1946 399 -3116 168 -2045 -403 -4446 -1704
-6948 -3768 -739 -609 -1377 -1188 -2200 -1997 -414 -407 -425 -416 -765 -685
-190 -150 -513 -408 -718 -573 -206 -166 -383 -308 -395 -316 -22 -15 23 37
273 315 692 770 1547 1639 2300 2339 2354 2187 4744 3782 6835 4561 851 317
1628 498 2385 555 63 4 279 7 480 5 290 -3 400 -8 535 -24z m-140 -321 c549
-32 1015 -131 1515 -320 256 -97 542 -227 785 -357 1466 -785 2798 -2141 4002
-4073 126 -202 319 -525 353 -590 30 -58 -8 0 -141 215 -502 816 -1024 1524
-1603 2175 -169 191 -692 710 -876 871 -1013 886 -2100 1477 -3089 1679 -1375
281 -2982 11 -4791 -806 -265 -119 -817 -396 -1085 -544 -1078 -595 -2132
-1311 -3265 -2219 -168 -134 -399 -312 -515 -394 -311 -222 -1094 -815 -1838
-1391 -164 -127 -308 -238 -320 -246 -55 -36 707 699 1058 1021 2473 2269
4935 3851 7100 4562 974 320 1908 464 2710 417z m150 -340 c761 -44 1389 -217
2120 -582 603 -302 1145 -673 1733 -1186 202 -177 675 -647 872 -867 611 -683
1183 -1469 1717 -2360 158 -264 222 -376 206 -360 -5 6 -67 105 -138 220 -145
237 -421 660 -581 888 -723 1031 -1519 1895 -2339 2537 -641 503 -1391 925
-2040 1149 -408 141 -851 229 -1320 262 -338 23 -880 4 -1265 -46 -1520 -196
-3266 -912 -5120 -2100 -211 -136 -198 -128 -490 -265 -417 -196 -923 -472
-1359 -744 -111 -69 -199 -121 -196 -117 3 5 112 92 242 193 2007 1559 3935
2612 5663 3092 815 226 1614 326 2295 286z m415 -354 c640 -74 1086 -200 1682
-477 1230 -570 2427 -1607 3500 -3032 388 -514 881 -1267 1168 -1782 59 -106
16 -45 -90 130 -1260 2071 -2697 3529 -4250 4315 -677 342 -1266 509 -2015
571 -190 16 -703 16 -905 0 -1046 -82 -2094 -366 -3290 -893 -124 -54 -409
-191 -635 -303 -372 -185 -423 -207 -555 -245 -294 -84 -681 -218 -992 -343
-76 -30 -138 -54 -138 -52 0 5 373 236 550 342 1755 1046 3451 1665 4855 1773
77 5 156 12 175 14 94 10 813 -3 940 -18z m50 -322 c842 -72 1563 -316 2385
-807 1279 -763 2486 -2013 3560 -3687 179 -278 547 -891 522 -869 -4 3 -65
100 -135 215 -521 851 -1065 1593 -1646 2244 -177 198 -616 639 -809 812 -624
561 -1267 1002 -1921 1318 -587 284 -1184 443 -1891 501 -192 16 -734 16 -935
0 -962 -77 -1926 -318 -2976 -746 -183 -75 -194 -78 -374 -106 -270 -42 -539
-94 -765 -148 -44 -11 -81 -18 -83 -16 -5 5 496 251 703 345 1617 736 3086
1054 4365 944z m71 -314 c897 -75 1612 -312 2439 -808 893 -535 1751 -1306
2558 -2296 339 -417 722 -950 1047 -1461 102 -161 394 -643 464 -767 53 -95
28 -66 -34 40 -191 321 -527 835 -760 1162 -1059 1486 -2186 2542 -3444 3230
-1388 758 -3044 852 -5006 285 -121 -35 -240 -71 -264 -79 -32 -12 -115 -19
-305 -26 -143 -6 -310 -15 -371 -20 -60 -5 -144 -12 -185 -15 l-75 -6 110 46
c865 360 1865 618 2707 700 356 35 810 41 1119 15z m-45 -300 c801 -47 1458
-217 2124 -551 609 -306 1168 -690 1750 -1204 177 -156 712 -691 876 -875 576
-647 1096 -1352 1601 -2168 108 -175 334 -556 363 -612 31 -62 -16 10 -115
175 -1049 1740 -2271 3104 -3550 3961 -918 614 -1687 895 -2755 1004 -169 18
-773 24 -992 11 -424 -26 -819 -80 -1256 -171 l-142 -30 -163 15 c-89 9 -254
18 -367 22 -113 3 -211 9 -218 12 -14 8 378 120 630 181 774 187 1555 268
2214 230z m149 -300 c832 -58 1576 -265 2236 -620 1484 -800 2844 -2190 4071
-4160 164 -263 414 -690 405 -690 -2 0 -37 55 -77 123 -292 489 -692 1086
-1020 1522 -393 522 -759 944 -1189 1376 -439 439 -806 753 -1251 1070 -845
602 -1628 930 -2570 1078 -536 85 -1201 97 -1800 35 -217 -23 -235 -23 -421
13 -91 18 -239 42 -328 55 -110 15 -155 25 -140 30 36 14 385 75 574 102 200
28 428 52 610 65 173 12 736 13 900 1z m-3340 -170 c-27 -11 -133 -49 -235
-86 -246 -88 -465 -175 -755 -299 -192 -82 -259 -106 -335 -119 -153 -28 -491
-103 -679 -152 -95 -25 -175 -43 -177 -42 -5 6 512 272 726 373 242 115 561
257 610 273 71 22 583 65 825 69 l70 2 -50 -19z m645 10 c91 -5 203 -13 250
-16 l85 -8 -45 -12 c-25 -7 -130 -35 -235 -63 -222 -58 -453 -127 -705 -211
-176 -58 -186 -60 -363 -76 -100 -8 -267 -26 -372 -39 -104 -14 -212 -27 -240
-30 l-50 -5 45 21 c178 83 621 256 950 370 l225 78 145 0 c80 1 219 -4 310 -9z
m625 -55 c168 -22 486 -74 509 -83 13 -6 -27 -16 -125 -31 -199 -31 -521 -95
-724 -143 l-170 -40 -390 -2 -390 -3 146 49 c321 105 915 266 989 267 20 1 90
-6 155 -14z m-2286 -29 c-2 -2 -92 -43 -199 -92 -243 -110 -746 -360 -990
-493 -162 -88 -209 -108 -375 -162 -303 -97 -668 -232 -960 -354 -22 -9 -35
-12 -30 -7 37 37 669 424 1001 615 370 212 491 275 571 297 245 68 1008 220
982 196z m4172 -26 c1154 -42 2070 -322 3001 -917 534 -341 1004 -722 1517
-1228 540 -534 987 -1062 1485 -1758 313 -437 763 -1146 1006 -1582 62 -112
13 -41 -85 125 -475 796 -1045 1593 -1597 2235 -829 963 -1754 1744 -2623
2213 -861 465 -1870 701 -2995 702 -195 0 -196 0 -320 36 -69 20 -203 55 -299
79 -164 42 -205 55 -168 55 9 0 94 7 189 16 95 9 270 19 388 23 118 4 222 8
230 9 8 1 130 -3 271 -8z m-901 -134 c140 -35 266 -69 280 -74 l25 -11 -30 0
c-133 -3 -556 -43 -765 -72 -180 -26 -191 -26 -430 0 -107 11 -251 23 -318 27
-68 4 -118 10 -110 14 7 5 99 26 203 48 387 83 754 143 835 137 30 -2 170 -33
310 -69z m-4705 -217 c-377 -212 -785 -461 -1145 -697 -169 -111 -250 -157
-461 -258 -458 -219 -850 -432 -1329 -722 -49 -30 1 12 170 143 617 478 1472
1082 1655 1170 208 99 705 287 1030 390 99 31 191 61 205 65 68 23 39 1 -125
-91z m5390 16 c88 -30 192 -67 232 -82 l72 -28 -472 1 c-442 1 -478 3 -571 23
-55 12 -181 35 -280 52 -163 27 -215 39 -175 39 8 0 111 11 229 24 190 22 466
42 645 49 71 2 109 -7 320 -78z m305 75 c802 -41 1484 -192 2159 -478 1029
-436 2172 -1361 3187 -2577 562 -673 1163 -1548 1654 -2406 98 -170 96 -167
83 -154 -5 6 -72 114 -148 240 -1018 1696 -2207 3062 -3446 3962 -578 419
-1116 697 -1742 902 -474 154 -943 249 -1491 301 -88 9 -140 20 -200 42 -45
17 -173 63 -286 104 l-205 73 120 1 c66 0 208 -5 315 -10z m-2695 -36 c-27 -8
-129 -37 -225 -65 -96 -28 -321 -99 -500 -159 -317 -105 -330 -108 -517 -134
-105 -14 -280 -42 -389 -61 -108 -20 -199 -34 -200 -32 -10 9 676 291 981 403
154 56 196 60 630 62 253 1 267 0 220 -14z m556 -9 c240 -20 328 -30 309 -37
-8 -3 -124 -26 -257 -52 -133 -26 -342 -72 -465 -102 -210 -53 -233 -56 -403
-65 -99 -5 -261 -16 -361 -24 -99 -8 -187 -15 -195 -14 -36 2 502 174 806 258
210 58 251 61 566 36z m-1456 -15 c-11 -4 -87 -33 -170 -65 -213 -80 -501
-200 -748 -311 -202 -90 -224 -97 -472 -159 -143 -35 -347 -89 -454 -119 -107
-31 -196 -54 -198 -52 -11 10 752 401 1057 541 163 75 202 84 563 130 345 43
466 54 422 35z m2235 -79 c278 -48 319 -57 290 -63 -14 -3 -126 -15 -250 -27
-124 -12 -315 -34 -425 -50 -187 -27 -211 -28 -375 -20 -96 4 -242 9 -325 9
l-150 2 115 29 c134 34 446 99 640 134 165 30 238 27 480 -14z m-3575 -210
c-295 -146 -479 -242 -820 -429 -97 -53 -189 -92 -360 -152 -233 -83 -572
-215 -744 -289 -154 -67 -155 -67 254 192 259 164 592 365 830 500 157 88 182
99 330 141 239 67 765 192 820 195 6 0 -134 -71 -310 -158z m4889 119 l189
-11 106 -43 c165 -68 391 -169 387 -173 -2 -2 -95 7 -207 21 -112 14 -267 30
-344 36 -232 17 -244 19 -405 65 -85 24 -204 56 -265 71 -60 15 -114 31 -119
35 -14 12 428 11 658 -1z m-551 -70 c128 -32 242 -62 254 -67 13 -4 -80 -8
-220 -8 -133 0 -318 -2 -412 -5 -142 -4 -213 0 -425 23 -349 39 -344 37 -235
53 245 35 687 74 758 68 27 -3 153 -31 280 -64z m1154 15 c968 -126 1827 -440
2603 -950 505 -333 958 -705 1454 -1194 795 -786 1492 -1681 2204 -2831 108
-175 308 -513 382 -645 65 -118 11 -37 -101 150 -1037 1737 -2225 3122 -3476
4052 -805 599 -1624 964 -2640 1177 -190 40 -219 49 -333 104 -69 33 -180 83
-247 112 -68 29 -123 54 -123 56 0 4 31 1 277 -31z m-2679 -50 c-3 -3 -93 -23
-199 -45 -182 -36 -531 -117 -609 -140 -19 -6 -155 -24 -302 -40 -147 -17
-309 -36 -360 -44 -51 -8 -95 -12 -96 -11 -9 9 732 239 893 278 28 7 680 8
673 2z m-1053 -70 c-228 -69 -400 -125 -625 -203 -100 -34 -204 -61 -335 -86
-104 -20 -277 -55 -382 -79 -106 -24 -193 -42 -193 -40 0 1 15 9 33 17 443
192 764 322 925 376 72 24 126 32 317 49 269 24 306 27 400 29 l70 1 -210 -64z
m1648 29 c97 -10 174 -20 170 -24 -5 -4 -91 -14 -193 -24 -102 -10 -259 -29
-350 -42 -121 -18 -242 -27 -455 -34 -159 -5 -312 -12 -340 -15 -27 -4 -47 -4
-44 -1 8 9 381 91 593 131 208 40 299 41 619 9z m1614 -125 c134 -44 243 -83
241 -85 -3 -2 -81 5 -174 15 -93 11 -243 25 -334 31 -116 8 -230 24 -385 55
-121 24 -245 47 -275 52 l-55 8 45 7 c25 3 191 5 369 2 l323 -4 245 -81z
m-3978 77 c-2 -2 -119 -50 -259 -107 -140 -56 -379 -157 -530 -224 -234 -104
-305 -131 -475 -178 -110 -31 -305 -90 -433 -130 -128 -41 -230 -71 -225 -67
20 18 436 236 739 386 231 114 356 170 410 184 89 23 384 78 609 114 171 28
170 27 164 22z m3013 -41 c112 -19 219 -38 238 -42 61 -14 -602 -19 -837 -6
-120 6 -247 12 -283 13 l-65 2 50 9 c41 7 345 38 510 52 119 10 198 5 387 -28z
m1181 5 c100 -11 252 -31 337 -44 l155 -24 150 -76 c154 -79 322 -171 294
-163 -55 17 -354 82 -514 112 -155 29 -225 48 -380 104 -104 38 -217 78 -250
89 l-60 20 43 1 c24 1 125 -8 225 -19z m-6173 -72 c-326 -188 -776 -467 -1150
-713 -162 -107 -261 -163 -400 -230 -320 -152 -731 -372 -1067 -571 -147 -87
-145 -84 37 58 576 446 1333 984 1482 1053 102 46 355 151 533 220 156 60 592
214 610 214 6 0 -15 -14 -45 -31z m4145 -7 l120 -6 -90 -8 c-49 -4 -187 -19
-305 -32 -244 -28 -691 -67 -697 -61 -2 2 81 20 184 40 160 30 247 45 403 69
38 6 250 5 385 -2z m-880 -46 c-115 -23 -280 -59 -365 -78 -85 -20 -280 -56
-433 -81 -153 -25 -290 -48 -305 -51 -15 -3 27 13 92 36 201 68 596 178 681
190 97 12 316 26 445 27 l95 1 -210 -44z m2452 -30 c106 -27 191 -50 189 -53
-7 -6 -575 56 -796 88 l-135 19 275 -3 275 -2 192 -49z m1323 8 c752 -171
1479 -482 2115 -906 301 -200 681 -498 1025 -803 187 -165 675 -654 857 -857
745 -829 1418 -1768 2058 -2872 132 -227 153 -265 138 -250 -6 6 -43 66 -83
135 -306 524 -783 1238 -1162 1743 -630 836 -1342 1598 -2033 2174 -357 297
-743 570 -1080 763 -421 241 -917 457 -1403 609 -193 60 -282 102 -597 279
-71 39 -73 39 165 -15z m-2175 18 c32 -5 -73 -9 -298 -9 -191 0 -346 2 -344 5
21 21 525 24 642 4z m1290 -37 c110 -14 218 -30 240 -35 45 -12 427 -170 422
-175 -1 -2 -51 8 -110 21 -59 14 -190 40 -290 60 -155 30 -392 91 -582 149
l-50 15 85 -5 c47 -3 175 -16 285 -30z m-7415 22 c0 -2 -48 -37 -107 -77 -463
-314 -984 -700 -1538 -1139 -143 -114 -339 -260 -435 -325 -527 -357 -884
-630 -1915 -1463 l-300 -243 265 263 c542 537 1214 1148 1825 1659 170 141
287 229 445 334 518 341 984 612 1504 871 252 126 256 127 256 120z m3875 -1
c-5 -3 -86 -27 -180 -55 -93 -28 -278 -87 -410 -130 -205 -68 -912 -256 -922
-246 -9 9 773 321 863 345 34 9 466 73 564 84 49 5 97 6 85 2z m-1657 -10 c-3
-3 -94 -49 -204 -104 -238 -117 -499 -254 -764 -401 -129 -72 -244 -127 -340
-163 -258 -98 -533 -211 -805 -332 -33 -15 -55 -22 -50 -17 18 17 423 275 635
404 297 181 567 337 620 358 77 30 470 146 695 204 240 62 220 57 213 51z
m1782 -156 c-184 -37 -339 -67 -344 -65 -10 2 270 77 359 96 66 13 252 38 290
38 17 0 -121 -31 -305 -69z m4037 41 c81 -17 227 -51 323 -76 156 -40 186 -51
270 -101 184 -109 291 -176 287 -180 -2 -2 -42 10 -88 27 -46 17 -180 60 -297
96 -153 46 -274 91 -425 158 -117 51 -219 96 -227 99 -36 13 20 5 157 -23z
m-729 0 c74 -11 168 -29 210 -40 77 -19 223 -68 210 -69 -10 -1 -562 121 -567
125 -7 6 7 5 147 -16z m-4349 -13 c-2 -2 -103 -44 -224 -92 -121 -48 -321
-133 -445 -188 -154 -68 -330 -135 -560 -212 -184 -63 -377 -129 -429 -149
-52 -19 -90 -31 -85 -27 45 41 925 478 1025 509 59 18 357 89 594 141 85 18
133 25 124 18z m536 -93 c-44 -14 -183 -57 -310 -96 -275 -85 -738 -218 -742
-214 -5 4 338 137 509 197 92 32 203 61 340 88 112 22 212 42 223 44 61 13 49
2 -20 -19z m4603 -50 c200 -49 225 -58 378 -133 90 -44 164 -81 164 -83 0 -10
-804 263 -819 278 -8 7 56 -7 277 -62z m-4461 40 c-3 -3 -12 -4 -19 -1 -8 3
-5 6 6 6 11 1 17 -2 13 -5z m5323 -141 c1118 -396 2007 -993 3040 -2039 913
-926 1763 -2077 2550 -3455 68 -118 124 -217 127 -221 2 -5 2 -8 0 -8 -3 0
-42 64 -88 143 -811 1391 -1757 2634 -2708 3559 -851 828 -1623 1358 -2563
1759 -149 64 -243 111 -340 172 -73 46 -166 103 -205 127 -40 23 -73 44 -73
46 0 5 101 -27 260 -83z m-8135 -111 c-303 -182 -426 -259 -755 -475 -222
-146 -330 -209 -560 -327 -348 -178 -606 -320 -882 -484 -43 -25 -78 -44 -78
-41 0 15 736 562 1095 813 295 206 300 209 524 307 285 125 839 343 876 345 5
0 -94 -62 -220 -138z m845 -28 c-157 -80 -395 -206 -530 -279 -161 -88 -319
-164 -460 -223 -118 -49 -296 -127 -395 -172 -263 -120 -292 -132 -270 -115
76 61 853 536 1025 628 48 25 182 78 310 121 218 73 575 184 595 185 6 0 -118
-65 -275 -145z m1039 132 c-2 -2 -91 -38 -197 -80 -106 -41 -288 -116 -405
-165 -116 -49 -304 -124 -417 -165 -113 -41 -256 -95 -319 -120 -63 -25 -117
-44 -119 -41 -5 4 575 292 716 354 93 42 254 92 562 175 161 44 188 50 179 42z
m6216 -141 c171 -62 189 -72 347 -177 92 -62 166 -113 164 -115 -2 -2 -52 19
-112 46 -60 27 -165 72 -234 101 -108 45 -530 256 -530 265 0 6 191 -57 365
-120z m-9085 50 c0 -2 -28 -23 -62 -47 -302 -203 -918 -661 -1329 -985 -155
-122 -359 -271 -485 -355 -570 -378 -1167 -830 -1749 -1324 -116 -99 -219
-186 -230 -194 -28 -21 306 304 510 496 687 650 1553 1395 1813 1560 380 243
804 485 1227 701 319 162 305 155 305 148z m8946 -116 c98 -37 328 -148 320
-156 -3 -3 -427 185 -435 193 -9 9 10 2 115 -37z m-6557 -63 c-8 -8 -633 -255
-636 -252 -8 8 335 155 472 203 140 48 174 59 164 49z m-520 -20 c-2 -2 -128
-66 -279 -143 -151 -77 -360 -185 -465 -241 -104 -56 -266 -136 -360 -178 -93
-42 -266 -123 -384 -180 -118 -57 -216 -102 -218 -100 -8 7 784 484 918 552
59 30 275 112 564 215 221 79 232 82 224 75z m7682 -37 c119 -50 428 -201 561
-275 704 -386 1266 -817 1957 -1499 905 -894 1716 -1948 2506 -3255 110 -183
367 -624 395 -680 33 -66 -16 11 -100 155 -1127 1941 -2519 3605 -3830 4580
-304 226 -678 463 -1029 653 -107 58 -256 150 -363 225 -99 70 -179 127 -176
127 3 0 39 -14 79 -31z m-8572 -43 c-2 -2 -92 -57 -199 -121 -265 -160 -473
-291 -735 -463 -121 -80 -305 -190 -410 -245 -296 -155 -766 -419 -882 -495
-13 -8 -23 -12 -23 -9 0 9 507 387 755 564 425 303 481 338 699 438 328 151
823 357 795 331z m8676 -140 c124 -60 199 -104 275 -162 168 -127 176 -129
-115 31 -137 76 -380 220 -400 237 -17 15 61 -20 240 -106z m-9820 -34 c-6 -5
-98 -71 -205 -147 -365 -259 -712 -519 -1085 -814 -93 -73 -280 -207 -415
-296 -465 -306 -891 -616 -1322 -962 -126 -100 -228 -181 -228 -179 0 4 336
316 530 493 366 332 1070 936 1261 1080 178 134 763 473 1234 715 227 116 248
126 230 110z m1714 -26 c-9 -8 -1232 -615 -1223 -607 10 10 305 182 497 291
156 88 214 115 494 230 193 79 247 99 232 86z m11211 -76 c6 -11 8 -20 6 -20
-3 0 -10 9 -16 20 -6 11 -8 20 -6 20 3 0 10 -9 16 -20z m-11991 -63 c-2 -2
-107 -66 -234 -142 -126 -76 -342 -210 -480 -298 -290 -187 -373 -236 -665
-399 -184 -102 -293 -166 -590 -344 -25 -15 -40 -22 -35 -17 33 34 594 439
910 658 184 127 387 232 805 419 118 53 229 103 245 110 28 14 54 21 44 13z
m9458 -103 c632 -370 1139 -759 1730 -1325 1046 -1004 2037 -2308 2946 -3876
153 -264 180 -313 173 -313 -2 0 -41 64 -87 143 -623 1067 -1354 2108 -2064
2937 -796 930 -1519 1590 -2355 2150 -195 130 -441 310 -494 361 -24 22 14 3
151 -77z m166 -222 c31 -25 57 -47 57 -49 0 -5 -251 166 -270 185 -26 25 152
-89 213 -136z m-10738 69 c-6 -5 -100 -73 -210 -152 -275 -196 -584 -427 -852
-635 -123 -96 -360 -266 -526 -378 -326 -218 -648 -447 -902 -641 -323 -247
-315 -241 -264 -193 351 328 1179 1041 1477 1271 132 102 728 451 1113 651
164 86 181 94 164 77z m864 -45 c-2 -2 -113 -70 -246 -150 -133 -79 -320 -194
-415 -254 -95 -60 -281 -172 -414 -250 -132 -77 -308 -182 -390 -232 -82 -50
-142 -85 -134 -77 25 25 389 280 645 452 219 147 272 178 594 338 324 162 373
185 360 173z m-2849 -109 c-20 -17 -137 -120 -260 -228 -552 -482 -1340 -1226
-1751 -1653 -79 -82 -231 -218 -419 -374 -351 -293 -715 -599 -1050 -886 -135
-115 -254 -216 -265 -225 -27 -22 72 94 294 344 352 397 676 748 1037 1122
233 240 235 242 606 530 474 368 841 650 1283 984 193 146 395 300 450 342
108 82 131 96 75 44z m13190 -226 c405 -292 758 -593 1158 -986 1149 -1128
2200 -2551 3211 -4347 18 -32 30 -58 28 -58 -3 0 -45 69 -93 153 -239 415
-573 951 -859 1377 -719 1072 -1445 1970 -2220 2746 -399 400 -645 619 -1065
953 -185 146 -310 251 -355 294 -27 27 11 1 195 -132z m2145 79 c9 -16 13 -30
11 -30 -3 0 -12 14 -21 30 -9 17 -13 30 -11 30 3 0 12 -13 21 -30z m-15105
-63 c-14 -13 -122 -107 -240 -208 -567 -487 -1069 -952 -1715 -1590 -229 -226
-462 -443 -675 -630 -370 -323 -803 -710 -1124 -1003 -121 -110 -215 -193
-210 -184 12 21 334 392 561 645 254 285 488 537 801 866 257 270 277 288 611
561 805 657 1331 1075 1621 1287 208 152 384 278 390 279 2 0 -7 -11 -20 -23z
m1610 19 c0 -2 -100 -75 -222 -162 -234 -167 -597 -436 -832 -618 -77 -59
-221 -162 -320 -228 -265 -178 -559 -387 -828 -590 -131 -98 -238 -176 -238
-174 0 13 670 588 1025 880 317 261 545 409 1105 723 118 66 235 132 260 146
53 29 50 28 50 23z m13530 -16 c6 -11 8 -20 6 -20 -3 0 -10 9 -16 20 -6 11 -8
20 -6 20 3 0 10 -9 16 -20z m-13095 -108 c-6 -5 -120 -75 -255 -157 -135 -82
-255 -155 -267 -163 -13 -8 -23 -12 -23 -9 0 9 293 195 421 267 120 67 144 79
124 62z m13200 -172 c9 -16 13 -30 11 -30 -3 0 -12 14 -21 30 -9 17 -13 30
-11 30 3 0 12 -13 21 -30z m-15160 -23 c-698 -592 -1111 -966 -1790 -1623
-154 -149 -388 -369 -520 -489 -505 -461 -995 -921 -1470 -1379 -148 -144
-263 -252 -255 -241 90 118 664 771 986 1121 568 618 761 808 1165 1154 712
611 1081 905 1599 1271 334 237 383 269 285 186z m1320 -16 c-6 -5 -82 -59
-170 -121 -211 -149 -407 -292 -645 -470 -107 -81 -278 -204 -380 -275 -242
-168 -509 -361 -690 -498 -79 -60 -138 -102 -131 -93 35 42 663 564 942 783
176 138 397 281 814 528 110 65 214 126 230 136 33 20 45 24 30 10z m13875
-21 c6 -11 8 -20 6 -20 -3 0 -10 9 -16 20 -6 11 -8 20 -6 20 3 0 10 -9 16 -20z
m-1550 -404 c200 -180 669 -651 882 -886 965 -1067 1860 -2320 2685 -3760 157
-275 166 -290 159 -290 -2 0 -19 26 -37 58 -193 340 -598 998 -857 1392 -888
1351 -1875 2561 -2783 3415 -123 116 -248 234 -279 264 l-55 54 70 -59 c39
-32 135 -117 215 -188z m-13600 150 c-8 -7 -107 -91 -220 -186 -459 -387 -841
-731 -1360 -1220 -91 -86 -239 -221 -330 -301 -280 -245 -518 -469 -940 -880
-390 -382 -579 -572 -1020 -1024 -232 -237 -224 -224 84 134 512 597 1024
1152 1593 1727 480 487 1258 1116 2088 1687 109 75 133 90 105 63z m15250 -16
c6 -11 8 -20 6 -20 -3 0 -10 9 -16 20 -6 11 -8 20 -6 20 3 0 10 -9 16 -20z
m40 -70 c6 -11 8 -20 6 -20 -3 0 -10 9 -16 20 -6 11 -8 20 -6 20 3 0 10 -9 16
-20z m-14351 6 c-2 -3 -92 -67 -199 -143 -201 -144 -850 -614 -1022 -741 -54
-40 -98 -70 -98 -68 0 6 350 287 525 422 170 132 246 184 543 375 219 141 267
170 251 155z m-994 -244 c-11 -11 -119 -102 -239 -203 -360 -301 -843 -728
-1136 -1004 -47 -44 -179 -162 -295 -262 -687 -592 -1239 -1138 -2089 -2066
-110 -119 -201 -217 -203 -217 -11 0 500 593 765 887 635 705 1445 1527 1775
1802 375 311 810 643 1217 929 118 83 217 151 220 152 2 0 -4 -8 -15 -18z
m15450 -42 c9 -16 13 -30 11 -30 -3 0 -12 14 -21 30 -9 17 -13 30 -11 30 3 0
12 -13 21 -30z m35 -60 c6 -11 8 -20 6 -20 -3 0 -10 9 -16 20 -6 11 -8 20 -6
20 3 0 10 -9 16 -20z m-15590 -204 c0 -3 -105 -92 -232 -199 -294 -246 -512
-435 -803 -696 -126 -113 -315 -280 -420 -370 -615 -529 -1212 -1103 -1701
-1636 -181 -197 -218 -234 -98 -96 258 295 602 664 978 1051 262 270 797 794
946 928 197 176 727 589 1130 880 203 147 200 145 200 138z m15695 -76 c9 -16
13 -30 11 -30 -3 0 -12 14 -21 30 -9 17 -13 30 -11 30 3 0 12 -13 21 -30z m35
-60 c6 -11 8 -20 6 -20 -3 0 -10 9 -16 20 -6 11 -8 20 -6 20 3 0 10 -9 16 -20z
m-15960 -214 c0 -2 -46 -41 -102 -87 -182 -148 -432 -364 -913 -784 -526 -460
-655 -576 -900 -809 -301 -285 -306 -286 -25 -2 277 280 696 683 890 857 170
153 504 420 870 696 175 133 180 136 180 129z m16060 -56 c6 -11 8 -20 6 -20
-3 0 -10 9 -16 20 -6 11 -8 20 -6 20 3 0 10 -9 16 -20z m-1269 -7 c13 -16 12
-17 -3 -4 -17 13 -22 21 -14 21 2 0 10 -8 17 -17z m-14791 3 c0 -2 -8 -10 -17
-17 -16 -13 -17 -12 -4 4 13 16 21 21 21 13z m-2477 -90 c-21 -24 -114 -124
-208 -223 -324 -341 -738 -800 -1055 -1168 -219 -254 -232 -267 -460 -468
-278 -245 -533 -473 -790 -707 -286 -259 -307 -278 -294 -260 155 218 866
1093 1251 1542 142 165 148 170 522 473 380 307 1063 853 1069 854 2 1 -14
-19 -35 -43z m17455 -124 c837 -956 1643 -2078 2402 -3342 229 -382 469 -800
446 -779 -3 3 -74 121 -157 263 -856 1465 -1847 2873 -2758 3920 -52 61 -89
106 -83 102 7 -4 75 -78 150 -164z m1122 148 c6 -11 8 -20 6 -20 -3 0 -10 9
-16 20 -6 11 -8 20 -6 20 3 0 10 -9 16 -20z m100 -270 c6 -11 8 -20 6 -20 -3
0 -10 9 -16 20 -6 11 -8 20 -6 20 3 0 10 -9 16 -20z m40 -70 c6 -11 8 -20 6
-20 -3 0 -10 9 -16 20 -6 11 -8 20 -6 20 3 0 10 -9 16 -20z m-18757 -187
c-444 -470 -889 -968 -1298 -1453 -142 -168 -233 -262 -411 -430 -308 -289
-413 -390 -793 -760 -179 -173 -321 -308 -316 -300 13 23 300 401 459 605 376
483 895 1113 992 1205 78 74 751 649 1133 970 168 140 316 265 330 277 14 12
28 23 30 23 2 0 -55 -62 -126 -137z m1817 -17 c0 -2 -8 -10 -17 -17 -16 -13
-17 -12 -4 4 13 16 21 21 21 13z m-65 -55 c-50 -48 -337 -293 -331 -282 9 13
338 301 346 301 2 0 -4 -8 -15 -19z m17110 -21 c9 -16 13 -30 11 -30 -3 0 -12
14 -21 30 -9 17 -13 30 -11 30 3 0 12 -13 21 -30z m35 -60 c6 -11 8 -20 6 -20
-3 0 -10 9 -16 20 -6 11 -8 20 -6 20 3 0 10 -9 16 -20z m-18872 -243 c-443
-470 -906 -994 -1333 -1507 -127 -153 -277 -315 -519 -560 -188 -190 -476
-487 -641 -660 -412 -432 -412 -432 -384 -390 185 278 853 1145 1286 1671 159
193 266 296 908 875 362 325 835 744 842 744 2 0 -69 -78 -159 -173z m1382 30
c0 -2 -17 -19 -37 -38 l-38 -34 34 38 c33 34 41 42 41 34z m17595 -67 c9 -16
13 -30 11 -30 -3 0 -12 14 -21 30 -9 17 -13 30 -11 30 3 0 12 -13 21 -30z
m-18831 -182 c-442 -457 -1081 -1184 -1594 -1813 -89 -110 -263 -308 -385
-440 -290 -313 -651 -715 -895 -995 -263 -302 -275 -314 -184 -180 295 435
761 1059 1210 1621 201 252 229 282 560 606 511 499 1375 1315 1383 1307 2 -2
-40 -50 -95 -106z m200 -111 c-661 -676 -1354 -1470 -2044 -2342 -52 -66 -185
-226 -296 -355 -307 -360 -567 -675 -838 -1015 -136 -170 -261 -326 -277 -345
-43 -52 194 311 376 575 419 608 1038 1428 1246 1651 466 499 1954 1994 1985
1994 4 0 -65 -73 -152 -163z m125 -127 c-999 -1032 -1661 -1801 -2421 -2811
-134 -178 -302 -398 -373 -489 -199 -256 -573 -759 -770 -1035 -247 -347 -247
-347 -20 25 359 588 1062 1594 1394 1994 252 306 1032 1159 1589 1741 169 176
779 774 791 775 2 0 -84 -90 -190 -200z m18646 80 c9 -16 13 -30 11 -30 -3 0
-12 14 -21 30 -9 17 -13 30 -11 30 3 0 12 -13 21 -30z m-20762 -63 c-462 -546
-821 -991 -1230 -1522 -98 -128 -164 -201 -264 -295 -260 -243 -537 -507 -774
-740 -328 -321 -324 -318 -230 -180 298 436 976 1354 1231 1667 36 44 155 154
305 281 326 278 978 822 985 822 3 0 -7 -15 -23 -33z m2076 -255 c-1188 -1211
-2049 -2254 -2898 -3512 -106 -157 -281 -417 -391 -578 -109 -161 -258 -386
-331 -500 -73 -114 -137 -211 -142 -217 -35 -36 313 576 480 844 272 438 671
1018 894 1301 414 524 1112 1348 1548 1825 153 168 1034 1055 1047 1055 4 0
-90 -98 -207 -218z m18826 -22 c9 -16 13 -30 11 -30 -3 0 -12 14 -21 30 -9 17
-13 30 -11 30 3 0 12 -13 21 -30z m35 -60 c6 -11 8 -20 6 -20 -3 0 -10 9 -16
20 -6 11 -8 20 -6 20 3 0 10 -9 16 -20z m-20967 -214 c-10 -13 -113 -140 -230
-282 -305 -373 -566 -706 -891 -1139 -278 -371 -290 -386 -521 -620 -266 -270
-540 -558 -805 -843 -99 -105 -181 -192 -183 -192 -6 0 -6 -1 153 240 298 453
626 920 1003 1429 l195 264 250 230 c285 261 1036 935 1044 936 2 1 -5 -10
-15 -23z m21072 -66 c9 -16 13 -30 11 -30 -3 0 -12 14 -21 30 -9 17 -13 30
-11 30 3 0 12 -13 21 -30z m-19549 -365 c-308 -328 -708 -782 -985 -1117 -62
-76 -115 -138 -117 -138 -18 0 510 623 762 901 190 208 474 509 481 509 3 0
-61 -70 -141 -155z m19689 25 c9 -16 13 -30 11 -30 -3 0 -12 14 -21 30 -9 17
-13 30 -11 30 3 0 12 -13 21 -30z m-21282 -167 c-460 -570 -847 -1078 -1226
-1609 -142 -199 -225 -304 -353 -445 -239 -263 -629 -709 -843 -964 -176 -210
-230 -272 -219 -250 3 6 54 88 112 183 322 522 678 1058 1079 1622 130 182
186 251 296 363 205 209 1177 1147 1189 1147 2 0 -14 -21 -35 -47z m-1330 -86
c-29 -32 -312 -405 -494 -652 -210 -284 -470 -649 -674 -945 -165 -239 -175
-251 -390 -470 -248 -253 -572 -597 -815 -864 -90 -99 -161 -172 -157 -164 8
23 261 429 432 693 266 412 575 869 835 1235 131 183 138 189 765 747 419 372
510 451 514 447 3 -2 -5 -14 -16 -27z m2427 -90 c0 -2 -15 -16 -32 -33 l-33
-29 29 33 c28 30 36 37 36 29z m-80 -90 c0 -2 -10 -12 -22 -23 l-23 -19 19 23
c18 21 26 27 26 19z m-1252 -479 c-411 -528 -803 -1067 -1196 -1648 -61 -91
-173 -239 -248 -330 -222 -268 -546 -675 -775 -976 -280 -367 -266 -351 -228
-279 221 413 630 1077 1029 1675 284 424 280 418 509 664 349 374 1075 1126
1087 1126 2 0 -78 -105 -178 -232z m-1174 -20 c-4 -7 -46 -65 -93 -128 -378
-513 -800 -1123 -1146 -1658 -92 -143 -152 -221 -274 -360 -348 -394 -638
-736 -916 -1082 -81 -102 -153 -189 -158 -195 -14 -15 4 19 151 280 265 469
613 1041 945 1549 282 433 260 407 628 771 290 287 858 834 867 835 2 0 0 -6
-4 -12z m23111 -88 c9 -16 13 -30 11 -30 -3 0 -12 14 -21 30 -9 17 -13 30 -11
30 3 0 12 -13 21 -30z m-21922 -268 c-15 -20 -96 -127 -179 -237 -419 -556
-834 -1159 -1193 -1735 -57 -91 -177 -264 -266 -385 -295 -400 -546 -756 -755
-1070 -62 -93 -117 -174 -122 -180 -17 -17 234 478 347 685 262 478 776 1323
919 1509 134 174 1254 1449 1274 1451 2 0 -9 -17 -25 -38z m707 -5 c0 -2 -10
-12 -22 -23 l-23 -19 19 23 c18 21 26 27 26 19z m21400 -147 c6 -11 8 -20 6
-20 -3 0 -10 9 -16 20 -6 11 -8 20 -6 20 3 0 10 -9 16 -20z m-24562 -22 c-218
-291 -901 -1332 -1242 -1893 -93 -154 -153 -240 -223 -320 -334 -385 -725
-867 -1012 -1247 -94 -125 -171 -226 -171 -223 0 2 41 82 91 177 381 723 771
1395 1242 2138 177 280 183 288 321 429 243 247 997 971 1012 971 4 0 -5 -15
-18 -32z m1174 -165 c-422 -594 -860 -1261 -1192 -1813 -126 -210 -183 -292
-320 -465 -244 -309 -318 -404 -517 -671 -162 -217 -442 -606 -488 -677 -10
-15 -20 -26 -22 -23 -6 6 281 574 428 846 227 422 589 1040 818 1400 94 146
152 215 515 604 194 208 787 826 793 826 2 0 -4 -12 -15 -27z m23483 -73 c9
-16 13 -30 11 -30 -3 0 -12 14 -21 30 -9 17 -13 30 -11 30 3 0 12 -13 21 -30z
m-21925 -144 c0 -2 -8 -10 -17 -17 -16 -13 -17 -12 -4 4 13 16 21 21 21 13z
m-30 -40 c0 -2 -8 -10 -17 -17 -16 -13 -17 -12 -4 4 13 16 21 21 21 13z m-30
-40 c0 -2 -8 -10 -17 -17 -16 -13 -17 -12 -4 4 13 16 21 21 21 13z m-460 -30
c0 -2 -8 -10 -17 -17 -16 -13 -17 -12 -4 4 13 16 21 21 21 13z m430 -10 c0 -2
-8 -10 -17 -17 -16 -13 -17 -12 -4 4 13 16 21 21 21 13z m-482 -58 c-75 -100
-337 -477 -485 -699 -281 -421 -513 -796 -728 -1179 -54 -96 -185 -309 -292
-472 -205 -316 -443 -694 -563 -896 -40 -67 -74 -121 -76 -119 -2 2 29 80 70
173 216 498 500 1044 822 1584 104 173 176 279 316 460 322 418 939 1180 955
1180 3 0 -6 -15 -19 -32z m322 -158 c-254 -352 -439 -633 -705 -1070 -252
-413 -534 -873 -545 -890 -20 -28 151 303 227 440 115 206 335 568 446 735
148 221 689 965 702 965 2 0 -54 -81 -125 -180z m-2606 -112 c-5 -7 -59 -91
-121 -186 -398 -608 -814 -1299 -1138 -1892 -99 -182 -144 -250 -289 -445
-404 -538 -835 -1173 -1086 -1597 -19 -31 -36 -56 -37 -54 -2 2 31 84 73 182
317 742 699 1498 1181 2339 205 357 230 392 423 607 312 346 983 1058 996
1058 3 0 2 -6 -2 -12z m1098 -170 c-398 -596 -778 -1220 -1082 -1778 -99 -181
-172 -299 -279 -450 -273 -385 -715 -1055 -871 -1318 -23 -40 -44 -71 -47 -69
-9 10 204 502 366 847 229 486 717 1393 834 1550 55 73 392 477 601 720 183
213 579 660 583 660 2 0 -46 -73 -105 -162z m751 -475 c-303 -467 -583 -953
-821 -1428 -60 -121 -142 -274 -182 -340 -105 -174 -288 -491 -412 -715 -59
-107 -108 -192 -108 -188 0 10 79 220 139 371 171 428 464 1016 626 1257 215
318 797 1130 811 1130 2 0 -22 -39 -53 -87z m-877 -235 c-388 -620 -756 -1285
-1009 -1823 -61 -131 -133 -262 -207 -380 -214 -340 -411 -672 -617 -1040 -74
-132 -131 -226 -127 -210 4 17 37 118 74 225 178 518 390 1012 685 1599 167
333 180 353 558 851 242 319 711 910 722 910 2 0 -33 -60 -79 -132z m-1088 30
c-43 -66 -326 -539 -423 -709 -270 -469 -533 -967 -750 -1418 -121 -253 -162
-326 -277 -501 -318 -483 -610 -977 -882 -1495 -64 -121 -116 -216 -116 -211
0 5 34 113 76 240 177 536 393 1074 670 1671 105 226 414 843 472 941 82 139
618 798 1079 1327 146 167 185 207 151 155z m1647 -570 c-88 -156 -220 -416
-345 -678 -75 -157 -190 -384 -257 -505 -66 -121 -167 -309 -223 -418 -57
-108 -104 -196 -106 -194 -4 4 102 288 181 487 112 278 201 464 300 625 172
279 473 745 481 745 2 0 -12 -28 -31 -62z m-2928 -110 c-601 -1054 -1016
-1887 -1358 -2728 -52 -126 -122 -273 -200 -415 -483 -885 -831 -1715 -1084
-2585 -71 -247 -73 -243 -29 70 86 602 281 1344 551 2090 272 749 765 1855
935 2093 190 269 506 681 751 982 176 215 447 535 453 535 3 0 -5 -19 -19 -42z
m2255 -20 c-77 -128 -241 -435 -387 -723 -180 -358 -299 -618 -422 -925 -49
-122 -107 -245 -172 -360 -158 -280 -285 -516 -428 -795 -74 -143 -131 -244
-127 -225 20 106 116 437 189 655 107 320 301 808 396 997 55 109 514 788 822
1216 128 178 176 237 129 160z m-1078 -155 c-161 -274 -540 -1010 -709 -1378
-134 -291 -260 -587 -354 -833 -32 -85 -88 -197 -169 -337 -241 -422 -510
-939 -682 -1312 -46 -100 -86 -181 -87 -179 -2 2 10 66 27 142 150 680 414
1444 775 2244 50 111 147 260 418 638 252 353 789 1062 804 1062 3 0 -8 -21
-23 -47z m1361 -680 c-146 -290 -268 -530 -271 -532 -6 -6 3 14 106 254 45
105 103 233 129 285 49 98 290 520 298 520 2 0 -116 -237 -262 -527z m-452 50
c-178 -375 -307 -687 -414 -1002 -62 -183 -90 -247 -256 -576 -103 -203 -220
-440 -260 -525 -83 -171 -82 -172 -28 85 49 226 104 423 196 700 68 204 90
258 151 365 102 178 357 597 505 828 69 108 135 212 145 230 38 61 27 32 -39
-105z m-994 -224 c-300 -598 -579 -1286 -754 -1859 -38 -123 -69 -194 -208
-470 -155 -310 -278 -569 -429 -910 l-69 -155 6 80 c14 184 92 584 176 905 79
303 252 828 308 939 62 120 395 652 624 996 177 265 377 555 383 555 2 0 -14
-36 -37 -81z m25968 29 c-3 -8 -6 -5 -6 6 -1 11 2 17 5 13 3 -3 4 -12 1 -19z
m-27293 -260 c-407 -814 -739 -1617 -944 -2283 -104 -341 -135 -424 -220 -605
-263 -560 -459 -1082 -694 -1845 l-24 -80 -1 80 c-1 97 14 311 34 495 76 675
276 1461 585 2295 102 274 104 279 206 452 224 379 557 889 834 1278 153 214
352 485 357 485 2 0 -58 -122 -133 -272z m27353 210 c-3 -8 -6 -5 -6 6 -1 11
2 17 5 13 3 -3 4 -12 1 -19z m-24967 -99 c-50 -120 -203 -531 -265 -709 -33
-96 -101 -259 -164 -390 -59 -124 -156 -334 -216 -467 -60 -134 -110 -241
-112 -239 -8 8 107 454 192 742 51 173 64 202 156 373 129 239 432 771 436
767 2 -1 -11 -36 -27 -77z m24927 59 c-3 -8 -6 -5 -6 6 -1 11 2 17 5 13 3 -3
4 -12 1 -19z m50 0 c-3 -8 -6 -5 -6 6 -1 11 2 17 5 13 3 -3 4 -12 1 -19z m-40
-40 c-3 -8 -6 -5 -6 6 -1 11 2 17 5 13 3 -3 4 -12 1 -19z m50 0 c-3 -8 -6 -5
-6 6 -1 11 2 17 5 13 3 -3 4 -12 1 -19z m-40 -50 c-3 -8 -6 -5 -6 6 -1 11 2
17 5 13 3 -3 4 -12 1 -19z m50 0 c-3 -8 -6 -5 -6 6 -1 11 2 17 5 13 3 -3 4
-12 1 -19z m-40 -40 c-3 -8 -6 -5 -6 6 -1 11 2 17 5 13 3 -3 4 -12 1 -19z m50
0 c-3 -8 -6 -5 -6 6 -1 11 2 17 5 13 3 -3 4 -12 1 -19z m50 0 c-3 -8 -6 -5 -6
6 -1 11 2 17 5 13 3 -3 4 -12 1 -19z m-90 -50 c-3 -7 -5 -2 -5 12 0 14 2 19 5
13 2 -7 2 -19 0 -25z m50 10 c-3 -8 -6 -5 -6 6 -1 11 2 17 5 13 3 -3 4 -12 1
-19z m50 0 c-3 -8 -6 -5 -6 6 -1 11 2 17 5 13 3 -3 4 -12 1 -19z m-25118 -425
c-91 -230 -227 -560 -301 -733 -75 -173 -141 -332 -149 -352 -7 -21 -15 -36
-17 -34 -5 6 125 436 193 637 44 128 85 220 187 419 143 280 249 480 252 480
1 0 -73 -188 -165 -417z m25028 375 c-3 -8 -6 -5 -6 6 -1 11 2 17 5 13 3 -3 4
-12 1 -19z m50 0 c-3 -8 -6 -5 -6 6 -1 11 2 17 5 13 3 -3 4 -12 1 -19z m-40
-50 c-3 -7 -5 -2 -5 12 0 14 2 19 5 13 2 -7 2 -19 0 -25z m50 10 c-3 -8 -6 -5
-6 6 -1 11 2 17 5 13 3 -3 4 -12 1 -19z m50 0 c-3 -8 -6 -5 -6 6 -1 11 2 17 5
13 3 -3 4 -12 1 -19z m50 0 c-3 -8 -6 -5 -6 6 -1 11 2 17 5 13 3 -3 4 -12 1
-19z m-90 -50 c-3 -7 -5 -2 -5 12 0 14 2 19 5 13 2 -7 2 -19 0 -25z m50 10
c-3 -8 -6 -5 -6 6 -1 11 2 17 5 13 3 -3 4 -12 1 -19z m50 0 c-3 -8 -6 -5 -6 6
-1 11 2 17 5 13 3 -3 4 -12 1 -19z m-150 -10 c-3 -8 -6 -5 -6 6 -1 11 2 17 5
13 3 -3 4 -12 1 -19z m110 -30 c-3 -8 -6 -5 -6 6 -1 11 2 17 5 13 3 -3 4 -12
1 -19z m50 0 c-3 -8 -6 -5 -6 6 -1 11 2 17 5 13 3 -3 4 -12 1 -19z m-150 -20
c-3 -7 -5 -2 -5 12 0 14 2 19 5 13 2 -7 2 -19 0 -25z m50 10 c-3 -8 -6 -5 -6
6 -1 11 2 17 5 13 3 -3 4 -12 1 -19z m21 -83 c0 -16 -2 -15 -8 5 -4 14 -8 34
-8 45 0 16 2 15 8 -5 4 -14 8 -34 8 -45z m39 43 c-3 -8 -6 -5 -6 6 -1 11 2 17
5 13 3 -3 4 -12 1 -19z m-100 -10 c-3 -8 -6 -5 -6 6 -1 11 2 17 5 13 3 -3 4
-12 1 -19z m110 -30 c-3 -8 -6 -5 -6 6 -1 11 2 17 5 13 3 -3 4 -12 1 -19z m50
0 c-3 -8 -6 -5 -6 6 -1 11 2 17 5 13 3 -3 4 -12 1 -19z m100 0 c-3 -8 -6 -5
-6 6 -1 11 2 17 5 13 3 -3 4 -12 1 -19z m-250 -20 c-3 -7 -5 -2 -5 12 0 14 2
19 5 13 2 -7 2 -19 0 -25z m110 -30 c-3 -7 -5 -2 -5 12 0 14 2 19 5 13 2 -7 2
-19 0 -25z m50 10 c-3 -8 -6 -5 -6 6 -1 11 2 17 5 13 3 -3 4 -12 1 -19z m50 0
c-3 -8 -6 -5 -6 6 -1 11 2 17 5 13 3 -3 4 -12 1 -19z m50 0 c-3 -8 -6 -5 -6 6
-1 11 2 17 5 13 3 -3 4 -12 1 -19z m-189 -53 c0 -16 -2 -15 -8 5 -4 14 -8 34
-8 45 0 16 2 15 8 -5 4 -14 8 -34 8 -45z m-50 -10 c0 -16 -2 -15 -8 5 -4 14
-8 34 -8 45 0 16 2 15 8 -5 4 -14 8 -34 8 -45z m149 23 c-3 -8 -6 -5 -6 6 -1
11 2 17 5 13 3 -3 4 -12 1 -19z m50 0 c-3 -8 -6 -5 -6 6 -1 11 2 17 5 13 3 -3
4 -12 1 -19z m50 0 c-3 -8 -6 -5 -6 6 -1 11 2 17 5 13 3 -3 4 -12 1 -19z
m-150 -10 c-3 -8 -6 -5 -6 6 -1 11 2 17 5 13 3 -3 4 -12 1 -19z m60 -40 c-3
-7 -5 -2 -5 12 0 14 2 19 5 13 2 -7 2 -19 0 -25z m50 10 c-3 -8 -6 -5 -6 6 -1
11 2 17 5 13 3 -3 4 -12 1 -19z m50 0 c-3 -8 -6 -5 -6 6 -1 11 2 17 5 13 3 -3
4 -12 1 -19z m-139 -53 c0 -16 -2 -15 -8 5 -4 14 -8 34 -8 45 0 16 2 15 8 -5
4 -14 8 -34 8 -45z m-26224 -71 c-171 -408 -336 -914 -424 -1304 -37 -164 -46
-192 -126 -361 -117 -249 -235 -515 -334 -749 -45 -107 -87 -199 -92 -205 -6
-7 -8 9 -4 45 3 30 8 105 11 165 14 245 66 562 151 905 55 225 55 225 141 385
216 403 708 1243 720 1231 2 -2 -17 -52 -43 -112z m26323 84 c-3 -8 -6 -5 -6
6 -1 11 2 17 5 13 3 -3 4 -12 1 -19z m50 0 c-3 -8 -6 -5 -6 6 -1 11 2 17 5 13
3 -3 4 -12 1 -19z m-100 -10 c-3 -8 -6 -5 -6 6 -1 11 2 17 5 13 3 -3 4 -12 1
-19z m110 -30 c-3 -8 -6 -5 -6 6 -1 11 2 17 5 13 3 -3 4 -12 1 -19z m-89 -53
c0 -16 -2 -15 -8 5 -4 14 -8 34 -8 45 0 16 2 15 8 -5 4 -14 8 -34 8 -45z m39
43 c-3 -8 -6 -5 -6 6 -1 11 2 17 5 13 3 -3 4 -12 1 -19z m60 -40 c-3 -7 -5 -2
-5 12 0 14 2 19 5 13 2 -7 2 -19 0 -25z m-50 0 c-3 -8 -6 -5 -6 6 -1 11 2 17
5 13 3 -3 4 -12 1 -19z m100 0 c-3 -8 -6 -5 -6 6 -1 11 2 17 5 13 3 -3 4 -12
1 -19z m50 0 c-3 -8 -6 -5 -6 6 -1 11 2 17 5 13 3 -3 4 -12 1 -19z m-140 -40
c-3 -8 -6 -5 -6 6 -1 11 2 17 5 13 3 -3 4 -12 1 -19z m50 0 c-3 -8 -6 -5 -6 6
-1 11 2 17 5 13 3 -3 4 -12 1 -19z m50 0 c-3 -8 -6 -5 -6 6 -1 11 2 17 5 13 3
-3 4 -12 1 -19z m50 0 c-3 -8 -6 -5 -6 6 -1 11 2 17 5 13 3 -3 4 -12 1 -19z
m-178 -98 c0 -8 -7 8 -15 35 -7 28 -13 57 -13 65 0 8 7 -7 15 -35 7 -27 13
-57 13 -65z m49 15 c0 -16 -2 -15 -8 5 -4 14 -8 34 -8 45 0 16 2 15 8 -5 4
-14 8 -34 8 -45z m39 43 c-3 -8 -6 -5 -6 6 -1 11 2 17 5 13 3 -3 4 -12 1 -19z
m50 0 c-3 -8 -6 -5 -6 6 -1 11 2 17 5 13 3 -3 4 -12 1 -19z m50 0 c-3 -8 -6
-5 -6 6 -1 11 2 17 5 13 3 -3 4 -12 1 -19z m-90 -40 c-3 -8 -6 -5 -6 6 -1 11
2 17 5 13 3 -3 4 -12 1 -19z m50 0 c-3 -8 -6 -5 -6 6 -1 11 2 17 5 13 3 -3 4
-12 1 -19z m50 0 c-3 -8 -6 -5 -6 6 -1 11 2 17 5 13 3 -3 4 -12 1 -19z m-40
-40 c-3 -8 -6 -5 -6 6 -1 11 2 17 5 13 3 -3 4 -12 1 -19z m50 0 c-3 -8 -6 -5
-6 6 -1 11 2 17 5 13 3 -3 4 -12 1 -19z m-128 -98 c0 -8 -7 8 -15 35 -7 28
-13 57 -13 65 0 8 7 -7 15 -35 7 -27 13 -57 13 -65z m88 58 c-3 -8 -6 -5 -6 6
-1 11 2 17 5 13 3 -3 4 -12 1 -19z m50 0 c-3 -8 -6 -5 -6 6 -1 11 2 17 5 13 3
-3 4 -12 1 -19z m50 0 c-3 -8 -6 -5 -6 6 -1 11 2 17 5 13 3 -3 4 -12 1 -19z
m-27843 -45 c-354 -829 -582 -1528 -715 -2196 -34 -170 -47 -218 -95 -330
-156 -364 -319 -800 -455 -1217 l-84 -255 -7 85 c-31 406 28 997 156 1572 81
363 107 445 201 633 177 355 404 767 636 1150 144 240 368 595 375 595 2 0 -3
-17 -12 -37z m27803 5 c-3 -8 -6 -5 -6 6 -1 11 2 17 5 13 3 -3 4 -12 1 -19z
m50 0 c-3 -8 -6 -5 -6 6 -1 11 2 17 5 13 3 -3 4 -12 1 -19z m-40 -40 c-3 -8
-6 -5 -6 6 -1 11 2 17 5 13 3 -3 4 -12 1 -19z m50 0 c-3 -8 -6 -5 -6 6 -1 11
2 17 5 13 3 -3 4 -12 1 -19z m50 0 c-3 -8 -6 -5 -6 6 -1 11 2 17 5 13 3 -3 4
-12 1 -19z m-90 -40 c-3 -8 -6 -5 -6 6 -1 11 2 17 5 13 3 -3 4 -12 1 -19z m50
0 c-3 -8 -6 -5 -6 6 -1 11 2 17 5 13 3 -3 4 -12 1 -19z m50 0 c-3 -8 -6 -5 -6
6 -1 11 2 17 5 13 3 -3 4 -12 1 -19z m50 -10 c-3 -8 -6 -5 -6 6 -1 11 2 17 5
13 3 -3 4 -12 1 -19z m-26575 -130 c-81 -250 -134 -462 -207 -827 -34 -169
-43 -197 -112 -355 -97 -219 -245 -573 -313 -746 -29 -74 -55 -137 -57 -140
-17 -17 57 677 98 925 l20 120 167 330 c166 328 434 826 440 820 2 -2 -14 -59
-36 -127z m26435 100 c-3 -8 -6 -5 -6 6 -1 11 2 17 5 13 3 -3 4 -12 1 -19z
m50 0 c-3 -8 -6 -5 -6 6 -1 11 2 17 5 13 3 -3 4 -12 1 -19z m50 0 c-3 -8 -6
-5 -6 6 -1 11 2 17 5 13 3 -3 4 -12 1 -19z m-40 -40 c-3 -8 -6 -5 -6 6 -1 11
2 17 5 13 3 -3 4 -12 1 -19z m50 0 c-3 -8 -6 -5 -6 6 -1 11 2 17 5 13 3 -3 4
-12 1 -19z m50 0 c-3 -8 -6 -5 -6 6 -1 11 2 17 5 13 3 -3 4 -12 1 -19z m-90
-40 c-3 -8 -6 -5 -6 6 -1 11 2 17 5 13 3 -3 4 -12 1 -19z m100 0 c-3 -8 -6 -5
-6 6 -1 11 2 17 5 13 3 -3 4 -12 1 -19z m-90 -40 c-3 -8 -6 -5 -6 6 -1 11 2
17 5 13 3 -3 4 -12 1 -19z m117 -48 c4 -24 3 -29 -3 -15 -4 11 -11 36 -15 55
-4 24 -3 29 3 15 4 -11 11 -36 15 -55z m-26369 -41 c-42 -145 -114 -425 -170
-659 -48 -202 -65 -254 -167 -510 -63 -157 -148 -375 -188 -485 -41 -110 -77
-204 -80 -208 -14 -16 65 540 116 817 20 113 34 159 75 250 66 146 432 887
436 883 1 -2 -8 -41 -22 -88z m26382 -21 c-3 -8 -6 -5 -6 6 -1 11 2 17 5 13 3
-3 4 -12 1 -19z m50 0 c-3 -8 -6 -5 -6 6 -1 11 2 17 5 13 3 -3 4 -12 1 -19z
m50 -10 c-3 -8 -6 -5 -6 6 -1 11 2 17 5 13 3 -3 4 -12 1 -19z m-26331 -195
c-30 -99 -80 -272 -111 -384 -70 -254 -75 -270 -143 -453 -30 -83 -97 -269
-148 -415 -52 -146 -92 -250 -89 -231 29 196 145 770 168 835 45 122 367 839
374 832 2 -3 -21 -85 -51 -184z m26291 165 c-3 -8 -6 -5 -6 6 -1 11 2 17 5 13
3 -3 4 -12 1 -19z m27 -88 c4 -24 3 -29 -3 -15 -4 11 -11 36 -15 55 -4 24 -3
29 3 15 4 -11 11 -36 15 -55z m33 48 c-3 -8 -6 -5 -6 6 -1 11 2 17 5 13 3 -3
4 -12 1 -19z m20 -70 c-3 -8 -6 -5 -6 6 -1 11 2 17 5 13 3 -3 4 -12 1 -19z
m27 -88 c4 -24 3 -29 -3 -15 -4 11 -11 36 -15 55 -4 24 -3 29 3 15 4 -11 11
-36 15 -55z m33 48 c-3 -8 -6 -5 -6 6 -1 11 2 17 5 13 3 -3 4 -12 1 -19z m22
-68 c0 -9 -4 -8 -9 5 -5 11 -9 27 -9 35 0 9 4 8 9 -5 5 -11 9 -27 9 -35z m60
-40 c0 -9 -4 -8 -9 5 -5 11 -9 27 -9 35 0 9 4 8 9 -5 5 -11 9 -27 9 -35z m-40
-30 c0 -9 -4 -8 -9 5 -5 11 -9 27 -9 35 0 9 4 8 9 -5 5 -11 9 -27 9 -35z
m-26514 -370 c-69 -212 -146 -452 -172 -534 -26 -82 -49 -144 -50 -139 -4 10
98 428 123 508 22 68 216 557 220 553 1 -2 -53 -177 -121 -388z m-1671 208
c-182 -537 -311 -1095 -359 -1561 l-16 -158 -94 -237 c-106 -271 -238 -632
-316 -870 -34 -103 -56 -156 -60 -145 -38 106 -48 768 -16 1048 37 324 47 361
144 576 103 229 386 797 508 1024 115 212 235 425 240 425 2 0 -12 -46 -31
-102z m28315 52 c0 -9 -4 -8 -9 5 -5 11 -9 27 -9 35 0 9 4 8 9 -5 5 -11 9 -27
9 -35z m311 -365 c0 -5 -5 -3 -10 5 -5 8 -10 20 -10 25 0 6 5 3 10 -5 5 -8 10
-19 10 -25z m-30160 -159 c-143 -387 -308 -949 -399 -1361 -106 -477 -158
-883 -167 -1300 l-6 -250 -53 -220 c-115 -471 -224 -1071 -261 -1425 -4 -36
-10 -71 -13 -78 -16 -29 -129 328 -175 548 -59 285 -70 423 -71 830 l0 375 38
145 c241 914 564 1746 1014 2607 70 133 128 241 130 239 2 -1 -15 -51 -37
-110z m1800 -36 c-74 -320 -115 -608 -132 -930 l-12 -235 -97 -255 c-93 -246
-263 -727 -290 -820 -26 -92 -25 -96 -54 270 -21 259 -29 568 -17 680 10 102
39 178 237 615 81 179 387 807 391 802 1 -1 -10 -58 -26 -127z m370 -221 c-27
-206 -56 -497 -71 -699 l-12 -165 -84 -235 c-47 -129 -128 -365 -180 -525 -52
-159 -98 -297 -101 -305 -11 -28 -19 202 -21 597 l-1 392 89 213 c155 372 389
893 398 885 2 -3 -5 -74 -17 -158z m374 76 c-26 -146 -74 -487 -99 -694 l-25
-205 -99 -300 c-55 -166 -127 -390 -160 -500 -33 -109 -63 -201 -66 -204 -3
-4 -4 45 -1 108 3 63 8 223 11 354 4 132 10 296 15 366 8 124 9 130 76 301
114 295 353 864 360 857 1 -2 -4 -39 -12 -83z m242 -146 c-19 -95 -55 -298
-81 -449 -40 -238 -57 -310 -124 -535 -43 -143 -102 -349 -132 -458 -30 -108
-55 -193 -57 -187 -7 20 50 724 68 840 11 70 346 977 357 966 1 -1 -13 -81
-31 -177z m145 -111 c-17 -73 -55 -248 -85 -388 -30 -140 -77 -338 -104 -440
-27 -102 -66 -256 -88 -342 -21 -86 -40 -155 -42 -153 -5 4 21 219 59 495 l30
215 126 377 c70 208 128 376 131 374 2 -3 -10 -65 -27 -138z m-2710 -464 c-31
-124 -87 -404 -115 -579 -68 -430 -89 -810 -65 -1171 l11 -161 -40 -144 c-92
-326 -208 -827 -258 -1104 -9 -55 -20 -103 -24 -108 -7 -9 -89 215 -130 357
-63 218 -111 517 -125 786 l-7 115 51 178 c161 560 360 1111 606 1672 54 121
99 226 102 233 3 7 7 11 10 9 2 -3 -5 -40 -16 -83z m417 -499 c-12 -96 -20
-256 -24 -445 -7 -302 0 -431 33 -660 l16 -115 -56 -190 c-98 -331 -257 -958
-257 -1011 0 -42 -21 11 -63 161 -116 409 -187 726 -187 839 0 67 174 604 328
1011 82 219 223 568 227 563 1 -2 -7 -70 -17 -153z m1439 81 c-4 -24 -11 -245
-17 -492 l-11 -449 -39 -145 c-44 -164 -144 -565 -186 -745 l-28 -120 -7 55
c-11 79 -46 505 -60 710 l-11 175 57 180 c106 335 293 875 303 875 2 0 2 -20
-1 -44z m308 -142 c-8 -99 -24 -309 -35 -469 -17 -261 -22 -304 -54 -430 -33
-136 -130 -567 -159 -710 l-14 -70 -7 45 c-3 25 -10 219 -15 432 -10 433 -14
396 64 658 72 242 228 730 232 726 2 -2 -3 -84 -12 -182z m-711 -789 c7 -66 4
-82 -59 -300 -37 -126 -102 -369 -145 -538 -69 -274 -90 -345 -90 -310 0 6
-13 100 -30 209 -36 244 -90 675 -90 721 0 42 54 217 165 533 75 214 191 528
218 590 9 19 13 -82 18 -405 3 -236 9 -461 13 -500z m937 844 c-12 -73 -55
-449 -71 -614 -6 -60 -42 -267 -79 -460 -38 -192 -76 -386 -84 -430 l-15 -80
-1 190 c0 105 4 287 9 405 9 214 9 216 60 405 70 264 183 656 187 651 2 -2 -1
-32 -6 -67z m-1442 -534 c6 -77 18 -223 27 -325 l17 -185 -61 -205 c-78 -260
-127 -442 -192 -700 -55 -224 -58 -235 -65 -229 -6 7 -152 739 -171 864 l-17
111 52 164 c69 217 192 561 299 840 l87 225 7 -210 c3 -115 11 -273 17 -350z
m1476 -31 c-74 -480 -113 -705 -114 -669 -1 43 28 410 39 480 11 72 123 555
127 551 2 -2 -21 -165 -52 -362z m-567 -1189 c8 -166 8 -168 -41 -445 -19
-107 -52 -308 -73 -447 -21 -139 -39 -251 -41 -250 -4 4 -69 493 -93 702 l-23
190 47 210 c50 221 179 736 193 770 5 12 11 -105 15 -280 4 -165 11 -367 16
-450z m242 295 l-7 -445 -41 -270 c-22 -148 -48 -340 -58 -425 -14 -115 -20
-147 -26 -125 -8 31 -42 474 -54 690 -7 137 -3 162 113 685 36 162 68 305 71
318 2 13 5 22 6 20 2 -2 -1 -203 -4 -448z m-594 -115 c42 -462 42 -417 -10
-685 -26 -129 -67 -354 -92 -500 -24 -146 -46 -269 -48 -275 -7 -25 -166 842
-166 910 0 59 232 976 267 1055 4 8 10 -37 15 -100 5 -63 20 -245 34 -405z
m760 313 c-3 -62 -13 -227 -21 -365 -8 -139 -26 -353 -39 -475 -14 -123 -31
-279 -38 -348 l-13 -125 -6 135 c-4 74 -7 239 -8 365 -1 220 1 239 33 425 56
320 90 500 94 500 3 0 2 -51 -2 -112z m-1211 -283 c14 -104 39 -279 56 -387
l30 -198 -40 -187 c-53 -252 -103 -511 -138 -720 -15 -95 -31 -173 -34 -173
-6 0 -167 641 -215 850 l-17 76 76 304 c72 287 212 793 225 815 4 6 12 -35 19
-90 7 -55 24 -185 38 -290z m-549 -17 c25 -133 68 -349 95 -478 31 -144 49
-251 47 -275 -3 -22 -30 -164 -61 -315 -31 -151 -77 -396 -102 -544 -25 -148
-46 -271 -48 -272 -10 -10 -287 892 -287 933 0 34 78 382 131 583 60 232 172
621 176 616 3 -2 25 -114 49 -248z m-630 -118 c17 -96 89 -372 171 -659 l55
-193 -41 -212 c-53 -271 -92 -510 -125 -761 -39 -289 -32 -279 -90 -139 -117
288 -306 781 -306 800 0 97 187 936 281 1259 l23 80 8 -45 c5 -25 15 -83 24
-130z m-616 -380 c31 -193 88 -408 164 -615 36 -99 66 -189 66 -199 0 -11 -16
-123 -35 -250 -42 -283 -79 -595 -101 -863 -10 -112 -19 -202 -20 -200 -2 1
-98 197 -214 435 l-211 433 21 167 c28 226 63 458 106 692 49 269 150 728 171
780 3 8 12 -43 19 -115 7 -71 23 -191 34 -265z m2629 -220 c7 -91 23 -286 36
-435 l25 -270 -20 -195 c-10 -107 -26 -301 -35 -430 -16 -230 -24 -295 -31
-275 -10 26 -134 793 -134 827 0 50 50 397 100 700 22 130 40 240 40 244 0 4
2 5 4 3 2 -2 9 -78 15 -169z m222 -215 c16 -415 15 -463 -5 -789 -9 -142 -16
-293 -17 -335 -1 -100 -14 -136 -22 -61 -3 30 -22 199 -42 375 l-36 320 21
185 c12 102 34 284 51 405 16 120 29 226 29 234 0 8 2 12 4 10 2 -2 10 -157
17 -344z m-527 173 c9 -84 35 -281 57 -438 45 -314 45 -284 5 -630 -14 -118
-32 -296 -41 -395 -8 -99 -18 -200 -22 -225 l-6 -45 -14 55 c-7 30 -52 228
-99 440 l-86 385 27 175 c47 307 145 830 155 830 3 0 14 -69 24 -152z m-379
-165 c19 -111 57 -314 84 -450 42 -214 47 -256 40 -303 -19 -120 -79 -616 -96
-792 -10 -103 -21 -184 -24 -180 -7 7 -183 622 -231 804 l-22 86 37 229 c59
358 159 850 169 827 4 -10 23 -110 43 -221z m1010 -433 c-4 -272 -11 -486 -15
-475 -4 11 -13 126 -20 255 -11 218 -11 252 9 470 12 130 22 247 22 260 1 21
2 22 6 5 3 -11 2 -243 -2 -515z m-1419 49 l116 -464 -36 -280 c-42 -321 -86
-719 -86 -784 0 -28 -4 -41 -9 -35 -9 8 -101 266 -256 718 l-59 169 28 181
c46 306 173 973 182 963 2 -2 56 -212 120 -468z m-616 80 c28 -90 94 -298 147
-462 l97 -298 -32 -267 c-37 -304 -68 -612 -78 -784 -4 -65 -10 -118 -13 -118
-6 0 -11 11 -229 530 l-144 345 12 100 c39 337 172 1136 186 1122 2 -2 26 -77
54 -168z m-552 -419 c55 -140 136 -345 180 -455 l81 -200 -19 -185 c-23 -229
-47 -547 -60 -829 -6 -118 -12 -216 -14 -218 -2 -3 -99 186 -216 418 l-212
422 12 151 c30 400 128 1171 146 1154 1 -2 47 -118 102 -258z m2126 -285 c25
-149 59 -344 76 -435 l30 -165 -10 -295 c-6 -162 -14 -378 -18 -480 l-7 -185
-108 430 -109 430 22 240 c11 132 30 323 41 425 11 102 22 213 26 248 3 34 7
61 9 59 2 -1 23 -124 48 -272z m271 -151 l45 -361 0 -443 c0 -244 -2 -441 -5
-438 -7 6 -80 357 -129 621 -39 206 -40 164 4 747 21 270 31 341 37 270 2 -19
24 -198 48 -396z m150 11 c26 -333 52 -1104 34 -1025 -4 19 -27 163 -50 320
l-42 285 7 255 c3 140 9 311 13 380 l7 125 8 -70 c4 -38 14 -160 23 -270z
m-751 60 c30 -137 75 -336 100 -442 l45 -192 -14 -223 c-12 -183 -34 -663 -35
-767 -1 -31 -28 51 -166 499 l-107 345 7 99 c12 184 85 839 103 921 8 37 2 58
67 -240z m-303 -500 l82 -280 -17 -250 c-22 -329 -36 -608 -36 -724 0 -53 -4
-91 -8 -85 -5 5 -21 43 -37 84 -15 41 -85 231 -156 422 -93 251 -129 360 -129
392 0 103 99 990 117 1051 4 13 23 -43 55 -155 26 -96 85 -301 129 -455z
m-636 343 c15 -46 86 -249 158 -453 l130 -370 -17 -275 c-9 -151 -21 -403 -27
-559 -5 -157 -11 -286 -12 -287 -3 -3 -58 119 -249 559 l-130 299 7 96 c26
381 98 1072 111 1072 1 0 15 -37 29 -82z m-497 -368 c33 -80 116 -278 185
-440 l125 -295 -10 -165 c-5 -91 -13 -358 -16 -595 l-7 -430 -214 419 -214
420 6 220 c7 233 26 525 53 816 15 169 20 207 28 199 2 -2 31 -69 64 -149z
m1947 -380 c20 -102 58 -291 85 -420 l49 -235 11 -325 c5 -179 13 -381 15
-450 l5 -125 -45 155 c-25 85 -77 270 -116 410 l-71 255 6 320 c6 312 17 608
22 603 1 -2 19 -86 39 -188z m251 -295 c28 -175 49 -342 55 -445 5 -91 16
-262 24 -380 8 -118 14 -224 14 -235 -2 -26 -12 17 -98 397 l-71 316 1 404 c1
388 2 400 15 313 8 -49 35 -216 60 -370z m-467 -31 l111 -432 1 -263 c1 -145
4 -363 8 -484 4 -121 6 -222 5 -223 -2 -2 -66 189 -144 425 l-142 428 6 235
c10 378 33 785 42 755 1 -5 53 -204 113 -441z m-414 116 c36 -118 98 -314 137
-435 l71 -220 3 -525 3 -525 -40 100 c-22 55 -96 246 -166 425 l-127 325 2
150 c4 228 40 930 48 922 2 -2 33 -99 69 -217z m952 108 c-3 -8 -6 -5 -6 6 -1
11 2 17 5 13 3 -3 4 -12 1 -19z m78 -677 c14 -145 24 -265 22 -267 -1 -2 -20
96 -41 216 -39 227 -56 405 -54 595 l0 110 24 -195 c13 -107 35 -314 49 -459z
m-1347 123 l149 -400 5 -548 c4 -517 3 -545 -13 -514 -9 18 -97 211 -194 428
l-178 395 12 350 c12 376 29 695 37 735 7 30 -16 86 182 -446z m-495 -144 c85
-195 171 -390 191 -434 l36 -78 0 -263 c0 -145 5 -399 11 -565 6 -166 8 -304
6 -306 -2 -3 -100 181 -217 407 l-213 412 7 491 c5 436 14 702 21 694 2 -2 73
-163 158 -358z m1737 -560 c67 -288 80 -360 95 -515 9 -99 27 -283 40 -409 14
-126 23 -231 21 -233 -2 -2 -54 166 -116 374 -106 354 -113 386 -121 498 -13
190 -29 567 -28 663 l1 87 15 -65 c8 -36 50 -216 93 -400z m-311 285 c22 -82
76 -276 119 -430 71 -249 80 -293 86 -395 8 -142 54 -734 60 -775 5 -30 4 -30
-11 5 -8 19 -75 207 -149 416 l-133 381 -10 334 c-11 338 -14 626 -7 618 2 -2
22 -71 45 -154z m501 -555 c26 -163 90 -663 86 -668 -2 -2 -38 136 -80 305
-50 201 -79 344 -86 413 -15 154 -40 509 -39 550 1 37 86 -391 119 -600z
m-560 -440 c6 -102 17 -286 25 -410 8 -124 17 -263 21 -310 3 -56 2 -80 -4
-70 -6 8 -83 195 -172 415 l-162 400 -10 425 c-5 234 -6 463 -2 510 l7 85 144
-430 144 -430 9 -185z m-497 435 l164 -420 12 -265 c7 -146 20 -380 30 -520 9
-140 16 -257 15 -259 -3 -4 -21 33 -241 511 l-155 338 -4 537 c-3 359 -1 531
6 518 5 -11 83 -209 173 -440z m-402 -215 c151 -335 193 -436 195 -475 2 -27
8 -153 14 -280 6 -126 20 -349 30 -494 11 -146 18 -266 16 -268 -2 -2 -99 180
-216 404 l-212 407 -9 166 c-11 213 -23 977 -16 970 3 -3 92 -196 198 -430z
m1366 -630 l95 -315 34 -260 c19 -143 45 -339 58 -435 13 -96 23 -176 22 -177
-2 -2 -67 174 -146 389 -138 379 -144 397 -156 513 -16 143 -64 737 -63 774 0
14 14 -19 30 -74 17 -55 73 -242 126 -415z m273 -440 c17 -107 44 -275 61
-374 16 -98 28 -180 26 -182 -2 -2 -15 33 -29 79 -14 45 -65 205 -112 355
l-86 273 -35 312 c-57 514 -58 511 50 97 66 -257 104 -423 125 -560z m-540
435 l147 -420 17 -165 c9 -91 32 -297 52 -458 19 -162 34 -298 32 -303 -2 -5
-79 173 -172 397 -193 464 -171 369 -205 874 -25 367 -33 529 -25 510 4 -8 73
-204 154 -435z m-296 -155 l163 -405 17 -185 c9 -102 32 -326 52 -499 19 -173
33 -315 31 -317 -1 -2 -90 182 -196 409 l-193 412 -14 165 c-11 141 -33 501
-48 800 -5 105 -22 138 188 -380z m896 -139 c33 -167 59 -308 58 -313 -2 -6
-27 81 -56 191 -46 176 -113 548 -111 616 1 29 40 -146 109 -494z m-1252 -51
l191 -415 11 -130 c15 -178 46 -493 71 -708 11 -98 19 -185 17 -192 -2 -7 -99
169 -215 391 l-213 405 -20 252 c-19 250 -50 751 -50 811 1 41 -13 69 208
-414z m1221 -613 c108 -337 125 -401 161 -600 23 -122 57 -302 76 -401 19 -98
34 -180 32 -182 -2 -2 -66 161 -142 361 -153 407 -144 370 -211 852 -43 311
-49 361 -41 352 2 -2 58 -174 125 -382z m-195 -82 c126 -342 146 -404 161
-505 9 -63 41 -261 71 -439 30 -178 53 -326 51 -328 -2 -2 -79 173 -171 388
-189 445 -170 370 -230 879 -43 362 -51 455 -36 420 6 -14 76 -200 154 -415z
m341 50 c71 -258 221 -903 212 -912 -2 -1 -49 138 -105 310 l-103 312 -49 301
c-47 280 -54 334 -45 309 3 -5 43 -149 90 -320z m-610 -141 l174 -416 21 -151
c11 -84 43 -300 71 -481 28 -180 49 -329 47 -331 -2 -1 -90 180 -196 404
l-194 406 -24 200 c-25 211 -85 781 -83 799 0 6 3 5 6 -2 3 -7 83 -200 178
-428z m-291 -212 l175 -373 26 -197 c14 -108 46 -334 70 -501 25 -168 43 -306
42 -308 -2 -2 -99 178 -216 398 l-212 401 -25 207 c-30 261 -84 794 -83 823 0
17 7 9 24 -27 12 -27 102 -218 199 -423z m940 -709 c140 -368 147 -389 191
-601 25 -121 65 -312 90 -424 24 -111 42 -204 41 -205 -2 -2 -78 170 -170 381
l-167 384 -40 229 c-32 186 -77 454 -104 628 -4 25 -3 27 5 10 5 -11 75 -192
154 -402z m357 -638 c89 -367 94 -393 87 -385 -7 6 -247 622 -259 665 -8 25
-127 630 -144 730 -3 17 49 -127 115 -320 101 -295 132 -403 201 -690z m-586
566 l176 -413 54 -287 c30 -157 70 -365 89 -461 18 -96 33 -176 32 -177 -1 -2
-89 178 -195 399 l-193 401 -24 146 c-13 80 -44 281 -69 446 -25 165 -48 316
-51 335 -3 19 -3 33 -1 30 3 -3 85 -191 182 -419z m-266 -158 l192 -402 40
-233 c22 -128 60 -343 85 -477 24 -134 43 -246 41 -248 -2 -2 -98 173 -213
389 l-209 393 -18 105 c-19 112 -111 757 -122 850 -4 36 -3 50 4 40 5 -8 95
-196 200 -417z m876 -172 c36 -129 63 -236 61 -239 -16 -15 -209 661 -205 721
1 18 72 -220 144 -482z m20 -636 c133 -340 140 -361 237 -734 54 -211 97 -385
95 -387 -2 -3 -74 155 -160 349 l-155 353 -76 350 c-42 192 -81 368 -86 391
-12 50 -12 76 -1 48 5 -11 70 -177 146 -370z m69 -825 c48 -206 93 -401 101
-433 7 -33 12 -57 9 -54 -3 2 -88 175 -190 383 -113 232 -191 402 -199 439
-18 79 -165 836 -165 849 0 6 81 -173 179 -399 l178 -410 87 -375z m-506 678
c105 -219 196 -415 202 -435 9 -36 175 -803 186 -868 5 -28 4 -28 -19 11 -13
22 -108 198 -211 391 l-187 351 -30 158 c-46 243 -139 767 -139 783 0 8 2 12
4 10 1 -2 89 -183 194 -401z m577 122 c77 -222 267 -843 264 -869 0 -3 -51
122 -114 279 -108 268 -119 302 -185 573 -38 159 -70 291 -70 294 0 19 18 -28
105 -277z m306 -1510 c82 -292 197 -715 195 -718 -2 -1 -84 164 -184 368 -147
300 -186 388 -206 467 -36 142 -176 740 -176 750 0 4 77 -165 171 -377 109
-244 182 -423 200 -490z m200 -168 c55 -184 102 -341 105 -350 8 -30 -70 137
-184 393 -111 249 -112 251 -202 595 -49 189 -90 349 -90 355 1 5 62 -141 136
-325 108 -269 154 -401 235 -668z m-562 483 l150 -310 110 -435 c60 -239 108
-436 106 -438 -1 -1 -95 171 -208 382 l-206 384 -75 344 c-80 364 -116 536
-115 547 0 9 68 -126 238 -474z m561 -229 c33 -99 59 -181 57 -183 -13 -13
-219 581 -217 624 1 13 96 -249 160 -441z m181 -1451 c65 -225 116 -411 115
-412 -3 -3 -343 624 -383 707 -17 34 -197 716 -228 865 -3 11 81 -153 187
-365 l191 -385 118 -410z m-106 795 c138 -307 152 -345 260 -689 63 -201 113
-366 112 -368 -2 -1 -80 154 -175 345 l-172 347 -94 345 c-52 190 -97 359
-100 375 l-6 30 14 -30 c8 -16 80 -176 161 -355z m314 -500 c98 -281 106 -308
97 -299 -10 9 -213 463 -235 525 -27 79 -161 519 -161 530 1 26 223 -536 299
-756z m277 -1235 c67 -209 122 -381 120 -382 -3 -3 -368 674 -383 711 -15 38
-223 761 -222 772 0 5 82 -155 181 -356 l181 -365 123 -380z m-136 731 c105
-230 167 -385 244 -605 58 -163 109 -308 115 -323 6 -16 8 -28 5 -28 -3 0 -75
143 -160 317 -153 313 -156 321 -251 623 -53 168 -98 312 -101 320 -20 57 26
-37 148 -304z m-20 159 c0 -5 -5 -3 -10 5 -5 8 -10 20 -10 25 0 6 5 3 10 -5 5
-8 10 -19 10 -25z m229 -464 c56 -139 100 -255 98 -257 -6 -6 -110 232 -157
361 -101 276 -74 229 59 -104z m413 -1365 c65 -182 116 -331 115 -332 -1 -1
-84 149 -183 334 l-181 337 -107 332 c-59 183 -109 341 -112 350 -2 10 75
-142 173 -337 169 -337 184 -371 295 -684z m-133 600 c95 -206 286 -675 277
-683 -2 -2 -56 101 -120 229 -90 182 -134 286 -201 476 -84 241 -100 294 -66
217 10 -22 60 -130 110 -239z m577 -1433 c109 -277 134 -343 130 -343 -2 0
-74 129 -159 288 -150 277 -159 297 -256 567 -54 154 -102 289 -106 300 -3 11
64 -118 150 -287 100 -199 185 -385 241 -525z m-25 235 c49 -110 88 -202 86
-204 -9 -9 -155 311 -192 421 -18 53 23 -30 106 -217z m297 -725 c107 -215
182 -379 279 -610 30 -72 0 -23 -112 183 -87 161 -141 276 -210 450 -51 129
-91 234 -89 234 3 0 62 -116 132 -257z m618 -1230 c19 -40 32 -73 30 -73 -13
0 -187 357 -185 379 0 8 113 -214 155 -306z m1618 -3070 c9 -18 14 -33 12 -33
-6 0 -36 55 -36 66 0 11 5 3 24 -33z"/>
<path d="M22820 26303 c-102 -1 -864 -7 -1695 -13 -830 -6 -2348 -17 -3372
-25 l-1862 -15 -353 -357 c-195 -197 -797 -808 -1338 -1358 -541 -550 -1070
-1087 -1174 -1194 l-191 -193 725 7 725 7 -35 -38 c-19 -20 -247 -253 -507
-518 -260 -264 -471 -481 -470 -481 1 -1 421 2 932 6 512 4 1598 12 2415 18
817 6 1703 14 1969 17 340 5 482 3 480 -4 -2 -6 -460 -474 -1017 -1040 l-1013
-1029 -812 -7 c-446 -3 -1712 -13 -2812 -21 -2195 -16 -2384 -19 -2559 -40
-66 -8 -123 -12 -128 -9 -12 8 -188 -24 -344 -62 -559 -135 -1105 -438 -1529
-846 l-110 -106 990 0 c602 0 992 4 996 9 3 6 983 17 2485 29 1363 10 2879 22
3367 26 l888 7 1897 1926 c1043 1059 1959 1990 2036 2069 l140 142 -100 0
c-54 0 -925 -7 -1934 -15 -3771 -29 -4811 -36 -5013 -33 l-209 3 763 775 c419
426 878 891 1018 1033 l256 258 2090 14 c2208 16 2513 22 2740 55 720 107
1399 434 1905 919 l95 90 -75 -2 c-41 -1 -158 -3 -260 -4z"/>
<path d="M31165 26294 c-852 -7 -2151 -17 -2885 -23 -734 -6 -1387 -16 -1450
-21 -742 -67 -1431 -359 -2004 -849 -75 -65 -1276 -1281 -5145 -5211 -377
-382 -793 -805 -925 -939 l-241 -243 150 5 c504 20 1059 178 1517 432 230 129
504 327 674 487 43 40 545 548 1117 1128 l1041 1055 70 7 c39 4 1156 14 2481
23 1326 8 2605 18 2842 22 l433 6 577 586 c318 322 1163 1180 1877 1906 715
726 1372 1393 1460 1483 l161 162 -100 -1 c-55 -1 -797 -8 -1650 -15z m-996
-1311 c-150 -153 -608 -618 -1017 -1034 l-744 -757 -432 -6 c-620 -9 -3658
-28 -3805 -24 l-124 3 1017 1033 1018 1032 131 1 c73 1 767 7 1542 13 776 7
1697 14 2049 14 l638 2 -273 -277z"/>
<path d="M27620 21663 c-124 -21 -246 -112 -369 -278 -109 -145 -166 -247
-384 -680 -229 -454 -349 -681 -371 -703 -12 -12 -18 -13 -29 -4 -11 10 -15
121 -21 624 -10 811 -17 993 -39 1016 -13 13 -21 14 -35 6 -32 -20 -80 -105
-128 -227 -55 -142 -54 -139 -364 -657 -432 -719 -630 -1096 -715 -1354 -32
-98 -33 -99 -48 -75 -100 152 -156 486 -182 1089 -8 168 -9 167 87 194 85 24
266 119 355 184 339 253 390 570 113 705 -135 66 -374 103 -610 94 -190 -8
-321 -33 -462 -92 -15 -6 -18 -2 -18 19 0 19 -6 27 -25 32 -36 9 -113 -4 -162
-27 -85 -41 -216 -207 -428 -544 -232 -368 -605 -849 -871 -1122 -151 -154
-237 -204 -264 -154 -18 35 -11 82 30 204 112 329 421 939 696 1373 102 162
139 236 130 259 -14 37 -125 3 -224 -69 -55 -39 -122 -128 -282 -374 -466
-720 -695 -1197 -741 -1540 -47 -352 143 -325 553 80 164 162 268 278 435 485
63 78 122 143 129 143 8 0 14 -1 14 -3 0 -2 -37 -77 -83 -167 -83 -166 -153
-350 -183 -490 -24 -107 -24 -297 0 -375 31 -104 83 -175 127 -175 15 0 17 13
17 108 -1 161 38 302 165 602 124 294 432 881 638 1216 l71 115 27 -43 c35
-54 109 -120 168 -149 64 -31 73 -16 39 61 -52 115 -43 224 27 326 43 62 153
146 232 178 240 96 557 65 691 -68 172 -173 75 -463 -219 -654 -89 -57 -170
-90 -287 -117 l-95 -22 -8 -64 c-4 -35 -5 -167 -2 -294 12 -491 53 -757 138
-909 28 -51 43 -65 98 -95 59 -33 71 -36 149 -36 69 0 85 3 86 15 0 8 31 47
70 85 130 132 258 356 388 683 153 382 400 870 498 985 53 62 54 37 23 -448
-8 -121 -20 -301 -26 -400 -6 -102 -9 -284 -6 -420 8 -314 31 -473 73 -489 41
-16 66 25 165 269 156 385 443 915 720 1331 95 142 361 501 503 679 49 61 93
116 99 124 9 10 7 17 -8 27 -10 8 -24 13 -29 13 -6 -1 -22 -4 -36 -6z"/>
<path d="M28480 21593 c-188 -39 -458 -284 -572 -517 -63 -131 -45 -192 31
-104 121 142 282 287 355 322 61 28 81 29 111 3 27 -23 28 -27 27 -113 -5
-309 -136 -689 -372 -1084 -226 -378 -439 -601 -629 -660 -125 -39 -207 -20
-251 60 -21 39 -25 61 -28 158 -13 386 177 856 552 1362 49 66 122 156 162
200 70 76 92 120 59 120 -8 0 -39 -9 -70 -21 -175 -65 -460 -338 -653 -627
-158 -235 -281 -533 -328 -797 -23 -132 -24 -370 -1 -438 45 -139 130 -184
311 -166 234 24 471 154 707 389 154 153 262 284 383 468 168 256 270 465 355
725 73 227 93 335 89 482 -3 132 -19 180 -71 219 -27 20 -114 30 -167 19z"/>
<path d="M24863 21340 c-110 -63 -166 -135 -380 -490 -322 -534 -785 -1395
-838 -1558 -16 -49 -16 -55 -2 -69 45 -46 270 138 389 317 64 97 96 158 246
470 113 234 312 611 558 1056 79 143 144 270 144 282 0 32 -53 29 -117 -8z"/>
<path d="M8750 18540 l0 -295 61 -12 c84 -16 164 -67 212 -134 68 -96 68 -98
65 -645 -3 -477 -4 -490 -25 -536 -11 -25 -40 -67 -63 -92 -46 -50 -147 -106
-191 -106 -62 0 -59 16 -59 -306 l0 -294 12085 0 12085 0 0 315 0 315 -170 0
-170 0 0 760 0 760 170 0 170 0 0 283 0 282 -12085 0 -12085 0 0 -295z m19838
-727 c-3 -656 -3 -658 -26 -718 -50 -134 -141 -234 -271 -298 -82 -41 -87 -42
-201 -45 -103 -4 -124 -1 -187 20 -354 124 -468 553 -223 839 52 61 136 116
224 147 63 22 83 24 186 20 122 -4 114 -2 283 -86 4 -2 7 172 7 387 l0 391
105 0 106 0 -3 -657z m-9648 442 l0 -195 95 0 95 0 0 -100 0 -100 -95 0 -95 0
0 -555 0 -555 -105 0 -105 0 0 555 0 555 -95 0 -95 0 0 100 0 100 95 0 95 0 0
195 0 195 105 0 105 0 0 -195z m6440 0 l0 -195 95 0 95 0 0 -100 0 -100 -95 0
-95 0 0 -555 0 -555 -105 0 -105 0 0 555 0 555 -95 0 -95 0 0 100 0 100 95 0
95 0 0 195 0 195 105 0 105 0 0 -195z m-13640 -776 c157 -385 286 -707 288
-715 3 -11 -17 -14 -106 -14 l-110 0 -22 60 -23 60 -320 -2 -321 -3 -21 -55
-21 -55 -113 -3 c-89 -2 -112 0 -108 10 2 7 129 317 280 688 152 371 280 687
286 703 6 15 14 27 18 27 5 0 136 -316 293 -701z m12451 678 c30 -13 73 -37
94 -53 43 -33 115 -119 115 -138 0 -7 -39 -44 -87 -81 -94 -74 -88 -73 -124
-7 -27 48 -80 82 -149 93 -152 24 -266 -33 -300 -152 -26 -88 30 -198 120
-237 21 -9 85 -17 161 -21 114 -6 131 -9 191 -39 162 -79 251 -251 226 -434
-17 -127 -109 -251 -225 -306 -54 -25 -69 -27 -216 -30 -119 -3 -170 0 -210
12 -75 22 -158 85 -206 157 l-41 61 95 74 c52 41 97 74 100 74 3 0 5 -7 5 -17
0 -34 51 -103 97 -130 41 -24 56 -27 137 -26 72 0 99 4 131 20 152 79 153 277
1 355 -29 15 -70 22 -170 27 -146 9 -181 20 -263 82 -167 125 -213 376 -102
551 52 80 144 153 229 179 14 4 95 8 180 8 140 0 161 -2 211 -22z m-9921 -177
l0 -100 -105 0 -105 0 0 100 0 100 105 0 105 0 0 -100z m5640 0 l0 -100 -105
0 -105 0 0 100 0 100 105 0 105 0 0 -100z m9450 0 l0 -100 -105 0 -105 0 0
100 0 100 105 0 105 0 0 -100z m-16570 -220 c0 -16 1 -30 3 -30 2 0 21 9 43
19 68 33 129 44 228 39 83 -3 102 -8 168 -41 81 -39 155 -109 201 -187 52 -89
57 -135 57 -487 l0 -323 -105 0 -105 0 0 303 c0 345 -5 380 -68 449 -48 54
-102 78 -175 78 -97 0 -172 -46 -220 -135 -21 -38 -22 -54 -25 -367 l-3 -328
-105 0 -104 0 0 520 0 520 105 0 105 0 0 -30z m9480 0 c0 -16 1 -30 3 -30 2 0
21 9 43 19 68 33 129 44 228 39 83 -3 102 -8 168 -41 81 -39 155 -109 201
-187 52 -89 57 -135 57 -487 l0 -323 -105 0 -105 0 0 303 c0 345 -5 380 -68
449 -48 54 -102 78 -175 78 -97 0 -172 -46 -220 -135 -21 -38 -22 -54 -25
-367 l-3 -328 -105 0 -104 0 0 520 0 520 105 0 105 0 0 -30z m-8000 -495 l0
-515 -105 0 -105 0 0 515 0 515 105 0 105 0 0 -515z m780 485 c0 -16 1 -30 3
-30 2 0 21 9 43 19 68 33 129 44 227 39 77 -3 103 -9 159 -35 37 -18 90 -53
117 -78 47 -44 50 -45 60 -26 18 33 119 99 188 122 54 18 82 21 166 17 89 -3
111 -8 170 -35 132 -63 234 -196 257 -338 5 -33 10 -194 10 -357 l0 -298 -105
0 -105 0 0 284 c0 156 -5 308 -10 337 -12 65 -51 123 -108 164 -37 25 -55 30
-116 33 -63 4 -80 0 -124 -22 -28 -14 -62 -41 -76 -59 -55 -72 -56 -81 -56
-422 l0 -315 -104 0 -105 0 -3 323 c-3 308 -4 324 -25 363 -28 52 -90 108
-138 124 -20 7 -65 10 -100 8 -82 -5 -147 -44 -190 -112 l-30 -49 -3 -329 -3
-328 -105 0 -104 0 0 515 0 515 105 0 105 0 0 -30z m2582 10 c125 -38 258
-150 312 -263 51 -104 56 -148 56 -459 l0 -288 -105 0 -105 0 0 41 c0 22 -3
39 -7 37 -5 -2 -30 -15 -58 -29 -118 -63 -281 -78 -407 -39 -185 57 -329 226
-360 423 -38 248 112 492 352 574 88 30 230 31 322 3z m2278 -495 l0 -515
-105 0 -105 0 0 515 0 515 105 0 105 0 0 -515z m1312 468 c129 -64 221 -166
269 -298 18 -48 22 -82 22 -170 0 -88 -4 -122 -22 -170 -48 -132 -140 -234
-270 -298 -82 -41 -87 -42 -201 -45 -103 -4 -124 -1 -187 20 -87 31 -171 86
-223 147 -243 284 -132 711 219 838 59 21 79 23 188 20 119 -3 123 -4 205 -44z
m5098 -270 c0 -313 1 -319 24 -368 41 -88 116 -135 217 -135 105 0 200 66 227
159 8 25 12 142 12 350 l0 311 105 0 105 0 0 -329 c0 -295 -2 -336 -19 -390
-38 -122 -120 -215 -240 -273 -58 -28 -79 -33 -168 -36 -124 -5 -202 17 -291
82 -68 51 -103 94 -145 184 l-32 67 -3 348 -3 347 105 0 106 0 0 -317z m3040
-198 l0 -515 -105 0 -105 0 0 515 0 515 105 0 105 0 0 -515z m1322 468 c129
-64 221 -166 269 -298 18 -48 22 -82 22 -170 0 -88 -4 -122 -22 -170 -48 -132
-140 -234 -270 -298 -82 -41 -87 -42 -201 -45 -103 -4 -124 -1 -187 20 -87 31
-171 86 -223 147 -243 284 -132 711 219 838 59 21 79 23 188 20 119 -3 123 -4
205 -44z"/>
<path d="M27932 17539 c-73 -36 -124 -92 -152 -166 -55 -148 9 -311 152 -382
118 -59 262 -37 353 54 151 152 106 410 -89 501 -79 37 -183 34 -264 -7z"/>
<path d="M11325 17378 c-64 -167 -120 -309 -122 -315 -4 -10 48 -13 241 -13
136 0 246 4 246 9 0 12 -231 604 -240 614 -3 4 -60 -129 -125 -295z"/>
<path d="M17375 17557 c-87 -34 -151 -94 -187 -175 -29 -65 -29 -179 0 -244
50 -111 149 -180 269 -186 94 -5 157 16 222 74 73 65 106 139 106 234 0 62 -5
85 -28 132 -34 70 -110 140 -174 162 -54 18 -164 20 -208 3z"/>
<path d="M20862 17539 c-73 -36 -124 -92 -152 -166 -55 -148 9 -311 152 -382
118 -59 262 -37 353 54 151 152 106 410 -89 501 -79 37 -183 34 -264 -7z"/>
<path d="M30322 17539 c-73 -36 -124 -92 -152 -166 -55 -148 9 -311 152 -382
118 -59 262 -37 353 54 151 152 106 410 -89 501 -79 37 -183 34 -264 -7z"/>
</g>
</svg>
