<svg xmlns="http://www.w3.org/2000/svg" width="920" height="680" viewBox="0 0 920 680" role="img" aria-labelledby="title desc">
  <title id="title">Motion graphics project brief illustration</title>
  <desc id="desc">A professional contact and project planning illustration with timelines, media cards, and message panels.</desc>
  <defs>
    <linearGradient id="bg" x1="96" y1="84" x2="824" y2="596" gradientUnits="userSpaceOnUse">
      <stop offset="0" stop-color="#13243a"/>
      <stop offset="1" stop-color="#243f63"/>
    </linearGradient>
    <linearGradient id="accent" x1="218" y1="206" x2="702" y2="474" gradientUnits="userSpaceOnUse">
      <stop offset="0" stop-color="#ffb24d"/>
      <stop offset="1" stop-color="#f7931e"/>
    </linearGradient>
    <filter id="shadow" x="80" y="88" width="760" height="540" filterUnits="userSpaceOnUse" color-interpolation-filters="sRGB">
      <feDropShadow dx="0" dy="26" stdDeviation="28" flood-color="#09111f" flood-opacity=".2"/>
    </filter>
  </defs>
  <rect width="920" height="680" fill="#f6f9fc"/>
  <path d="M88 400c42-152 149-272 285-302 172-38 348 52 421 205 74 155-2 302-151 349-174 55-401-19-509-137-30-33-54-71-46-115z" fill="#e8eef6"/>
  <g filter="url(#shadow)">
    <rect x="132" y="102" width="656" height="476" rx="24" fill="url(#bg)"/>
    <rect x="164" y="142" width="592" height="72" rx="16" fill="#ffffff" opacity=".08"/>
    <circle cx="204" cy="178" r="13" fill="#ff6868"/>
    <circle cx="242" cy="178" r="13" fill="#ffd166"/>
    <circle cx="280" cy="178" r="13" fill="#2dd4bf"/>
    <rect x="334" y="168" width="312" height="20" rx="10" fill="#ffffff" opacity=".25"/>
    <rect x="188" y="252" width="284" height="244" rx="18" fill="#ffffff"/>
    <rect x="220" y="286" width="158" height="18" rx="9" fill="#13243a"/>
    <rect x="220" y="326" width="212" height="12" rx="6" fill="#cbd6e5"/>
    <rect x="220" y="354" width="174" height="12" rx="6" fill="#d8e1eb"/>
    <rect x="220" y="394" width="78" height="78" rx="16" fill="url(#accent)"/>
    <path d="M246 435l24 15 24-43" fill="none" stroke="#13243a" stroke-width="12" stroke-linecap="round" stroke-linejoin="round"/>
    <rect x="324" y="400" width="96" height="12" rx="6" fill="#cbd6e5"/>
    <rect x="324" y="430" width="74" height="12" rx="6" fill="#d8e1eb"/>
    <rect x="520" y="252" width="212" height="96" rx="18" fill="#ffffff" opacity=".96"/>
    <path d="M560 298h132" stroke="#13243a" stroke-width="14" stroke-linecap="round"/>
    <path d="M560 326h90" stroke="#cbd6e5" stroke-width="12" stroke-linecap="round"/>
    <circle cx="552" cy="298" r="10" fill="#f7931e"/>
    <rect x="520" y="380" width="212" height="116" rx="18" fill="#ffffff" opacity=".96"/>
    <path d="M560 424h132" stroke="#13243a" stroke-width="14" stroke-linecap="round"/>
    <path d="M560 454h112" stroke="#cbd6e5" stroke-width="12" stroke-linecap="round"/>
    <path d="M548 454l-20 26h58z" fill="#f7931e"/>
    <path d="M208 538h504" stroke="#ffffff" stroke-width="10" stroke-linecap="round" opacity=".18"/>
    <path d="M208 538h312" stroke="#f7931e" stroke-width="10" stroke-linecap="round"/>
    <circle cx="520" cy="538" r="18" fill="#f7931e"/>
  </g>
</svg>
