<svg xmlns="http://www.w3.org/2000/svg" width="1200" height="630" viewBox="0 0 1200 630" role="img" aria-labelledby="title desc">
  <title id="title">iPhone Mockup Templates article hero</title>
  <desc id="desc">Guide to iPhone mockup templates for app launch videos, mobile UI previews, responsive website demos, social ads, and device motion graphics.</desc>
  <defs>
    <linearGradient id="bg" x1="0" y1="0" x2="1" y2="1">
      <stop offset="0" stop-color="#111827"/>
      <stop offset="0.52" stop-color="#111827"/>
      <stop offset="1" stop-color="#22c55e"/>
    </linearGradient>
    <linearGradient id="panel" x1="0" y1="0" x2="1" y2="1">
      <stop offset="0" stop-color="#ffffff" stop-opacity="0.96"/>
      <stop offset="1" stop-color="#f8fafc" stop-opacity="0.9"/>
    </linearGradient>
    <filter id="shadow" x="-20%" y="-20%" width="140%" height="140%">
      <feDropShadow dx="0" dy="22" stdDeviation="24" flood-color="#020617" flood-opacity="0.24"/>
    </filter>
  </defs>
  <rect width="1200" height="630" fill="url(#bg)"/>
  <path d="M0 500 C190 420 320 610 520 522 C750 422 862 402 1200 484 L1200 630 L0 630 Z" fill="#ffffff" opacity="0.14"/>
  <path d="M860 62 L1128 330 L1054 404 L786 136 Z" fill="#ffffff" opacity="0.10"/>
  <circle cx="1035" cy="116" r="82" fill="#ffffff" opacity="0.10"/>
  <g opacity="0.28" stroke="#ffffff" stroke-width="2">
    <path d="M78 122 H336"/>
    <path d="M78 172 H272"/>
    <path d="M78 222 H392"/>
    <path d="M78 272 H302"/>
  </g>
  <rect x="90" y="96" width="1020" height="438" rx="34" fill="url(#panel)" filter="url(#shadow)"/>
  <rect x="132" y="132" width="300" height="28" rx="14" fill="#111827" opacity="0.18"/>
  <rect x="132" y="178" width="420" height="34" rx="17" fill="#0f172a" opacity="0.10"/>
  <rect x="132" y="236" width="514" height="18" rx="9" fill="#475569" opacity="0.18"/>
  <rect x="132" y="268" width="468" height="18" rx="9" fill="#475569" opacity="0.14"/>
  <text x="132" y="357" font-family="Inter, Arial, sans-serif" font-size="58" font-weight="800" fill="#111827">iPhone Mockup Templates</text>
  <text x="134" y="410" font-family="Inter, Arial, sans-serif" font-size="25" font-weight="500" fill="#475569">Mobile app previews and phone screen motion graphics</text>
  <g transform="translate(760 158)">
    <rect x="106" y="24" width="138" height="310" rx="34" fill="#0f172a"/><rect x="122" y="64" width="106" height="224" rx="18" fill="#f8fafc"/><rect x="146" y="46" width="58" height="8" rx="4" fill="#64748b"/><rect x="138" y="92" width="74" height="74" rx="16" fill="#22c55e"/><rect x="138" y="190" width="74" height="16" rx="8" fill="#0ea5e9"/><rect x="138" y="222" width="54" height="16" rx="8" fill="#f97316"/>
  </g>
  <rect x="132" y="456" width="210" height="48" rx="24" fill="#111827"/>
  <text x="164" y="488" font-family="Inter, Arial, sans-serif" font-size="18" font-weight="800" fill="#ffffff">SPURNO ARTICLE</text>
</svg>
