<svg xmlns="http://www.w3.org/2000/svg" width="1200" height="630" viewBox="0 0 1200 630" role="img" aria-labelledby="title desc">
  <title id="title">News Background Animation article hero</title>
  <desc id="desc">Complete guide to news background animation for broadcast graphics, breaking news videos, ticker layouts, world map loops, and stock motion backgrounds.</desc>
  <defs>
    <linearGradient id="bg" x1="0" y1="0" x2="1" y2="1">
      <stop offset="0" stop-color="#111827"/>
      <stop offset="0.52" stop-color="#dc2626"/>
      <stop offset="1" stop-color="#0ea5e9"/>
    </linearGradient>
    <linearGradient id="panel" x1="0" y1="0" x2="1" y2="1">
      <stop offset="0" stop-color="#ffffff" stop-opacity="0.96"/>
      <stop offset="1" stop-color="#f8fafc" stop-opacity="0.9"/>
    </linearGradient>
    <filter id="shadow" x="-20%" y="-20%" width="140%" height="140%">
      <feDropShadow dx="0" dy="22" stdDeviation="24" flood-color="#020617" flood-opacity="0.24"/>
    </filter>
  </defs>
  <rect width="1200" height="630" fill="url(#bg)"/>
  <path d="M0 500 C190 420 320 610 520 522 C750 422 862 402 1200 484 L1200 630 L0 630 Z" fill="#ffffff" opacity="0.14"/>
  <path d="M860 62 L1128 330 L1054 404 L786 136 Z" fill="#ffffff" opacity="0.10"/>
  <circle cx="1035" cy="116" r="82" fill="#ffffff" opacity="0.10"/>
  <g opacity="0.28" stroke="#ffffff" stroke-width="2">
    <path d="M78 122 H336"/>
    <path d="M78 172 H272"/>
    <path d="M78 222 H392"/>
    <path d="M78 272 H302"/>
  </g>
  <rect x="90" y="96" width="1020" height="438" rx="34" fill="url(#panel)" filter="url(#shadow)"/>
  <rect x="132" y="132" width="300" height="28" rx="14" fill="#dc2626" opacity="0.18"/>
  <rect x="132" y="178" width="420" height="34" rx="17" fill="#0f172a" opacity="0.10"/>
  <rect x="132" y="236" width="514" height="18" rx="9" fill="#475569" opacity="0.18"/>
  <rect x="132" y="268" width="468" height="18" rx="9" fill="#475569" opacity="0.14"/>
  <text x="132" y="357" font-family="Inter, Arial, sans-serif" font-size="58" font-weight="800" fill="#111827">News Background Animation</text>
  <text x="134" y="410" font-family="Inter, Arial, sans-serif" font-size="25" font-weight="500" fill="#475569">Broadcast graphics, tickers, maps, and newsroom loops</text>
  <g transform="translate(760 158)">
    <circle cx="166" cy="158" r="112" fill="#0f172a"/><path d="M76 158 h180 M166 46 c50 58 50 166 0 224 M166 46 c-50 58 -50 166 0 224" stroke="#38bdf8" stroke-width="10" fill="none" opacity="0.92"/><rect x="38" y="284" width="272" height="54" rx="10" fill="#ef4444"/><text x="68" y="321" font-family="Arial" font-size="26" font-weight="800" fill="#fff">BREAKING NEWS</text>
  </g>
  <rect x="132" y="456" width="210" height="48" rx="24" fill="#dc2626"/>
  <text x="164" y="488" font-family="Inter, Arial, sans-serif" font-size="18" font-weight="800" fill="#ffffff">SPURNO ARTICLE</text>
</svg>
