<svg xmlns="http://www.w3.org/2000/svg" width="1200" height="720" viewBox="0 0 1200 720" role="img" aria-labelledby="title desc">
  <title id="title">Shop now button animation hero graphic</title>
  <desc id="desc">A polished ecommerce call-to-action layout with animated button frames and product cards.</desc>
  <defs>
    <linearGradient id="bg" x1="0" x2="1" y1="0" y2="1">
      <stop offset="0" stop-color="#f8fafc"/>
      <stop offset="1" stop-color="#dff7f3"/>
    </linearGradient>
    <linearGradient id="button" x1="0" x2="1">
      <stop offset="0" stop-color="#0f766e"/>
      <stop offset="1" stop-color="#14b8a6"/>
    </linearGradient>
    <filter id="shadow" x="-20%" y="-20%" width="140%" height="140%">
      <feDropShadow dx="0" dy="24" stdDeviation="28" flood-color="#0f172a" flood-opacity=".16"/>
    </filter>
  </defs>
  <rect width="1200" height="720" fill="url(#bg)"/>
  <circle cx="1030" cy="130" r="108" fill="#f59e0b" opacity=".14"/>
  <circle cx="110" cy="610" r="150" fill="#0f766e" opacity=".12"/>
  <g filter="url(#shadow)">
    <rect x="142" y="100" width="916" height="520" rx="26" fill="#fff"/>
    <rect x="142" y="100" width="916" height="86" rx="26" fill="#17242f"/>
    <circle cx="190" cy="143" r="11" fill="#ef4444"/>
    <circle cx="226" cy="143" r="11" fill="#f59e0b"/>
    <circle cx="262" cy="143" r="11" fill="#22c55e"/>
    <rect x="790" y="127" width="198" height="32" rx="16" fill="#ffffff" opacity=".16"/>
  </g>
  <g transform="translate(202 230)">
    <rect width="238" height="242" rx="18" fill="#f1f5f9"/>
    <rect x="26" y="28" width="186" height="116" rx="14" fill="#d9eee9"/>
    <path d="M58 126h122l-32-46-26 33-20-22z" fill="#0f766e" opacity=".75"/>
    <circle cx="166" cy="62" r="18" fill="#f59e0b"/>
    <rect x="34" y="168" width="156" height="13" rx="6.5" fill="#334155" opacity=".2"/>
    <rect x="34" y="195" width="116" height="13" rx="6.5" fill="#334155" opacity=".16"/>
  </g>
  <g transform="translate(480 230)">
    <rect width="238" height="242" rx="18" fill="#f1f5f9"/>
    <rect x="26" y="28" width="186" height="116" rx="14" fill="#e8efff"/>
    <rect x="72" y="52" width="92" height="70" rx="12" fill="#334155" opacity=".2"/>
    <rect x="92" y="72" width="52" height="52" rx="8" fill="#0f766e" opacity=".8"/>
    <rect x="34" y="168" width="156" height="13" rx="6.5" fill="#334155" opacity=".2"/>
    <rect x="34" y="195" width="116" height="13" rx="6.5" fill="#334155" opacity=".16"/>
  </g>
  <g transform="translate(758 230)">
    <rect width="238" height="242" rx="18" fill="#f1f5f9"/>
    <rect x="26" y="28" width="186" height="116" rx="14" fill="#fff0db"/>
    <path d="M82 122h76l-9-58H91z" fill="#f59e0b" opacity=".82"/>
    <path d="M98 64c4-24 38-24 42 0" fill="none" stroke="#0f766e" stroke-width="10" stroke-linecap="round"/>
    <rect x="34" y="168" width="156" height="13" rx="6.5" fill="#334155" opacity=".2"/>
    <rect x="34" y="195" width="116" height="13" rx="6.5" fill="#334155" opacity=".16"/>
  </g>
  <g filter="url(#shadow)">
    <rect x="390" y="522" width="420" height="94" rx="47" fill="url(#button)"/>
    <text x="600" y="580" text-anchor="middle" font-family="Inter, Segoe UI, Arial, sans-serif" font-size="34" font-weight="800" fill="#fff">SHOP NOW</text>
  </g>
  <g fill="none" stroke="#0f766e" stroke-width="4" stroke-linecap="round" opacity=".55">
    <path d="M342 568h-70"/>
    <path d="M858 568h70"/>
    <path d="M600 494v-48"/>
  </g>
</svg>
