<svg xmlns="http://www.w3.org/2000/svg" width="1200" height="630" viewBox="0 0 1200 630" role="img" aria-labelledby="title desc">
  <title id="title">Terms and Conditions article hero</title>
  <desc id="desc">Website use, content ownership, third-party marketplace links, and service information for SPurno Animation Studio.</desc>
  <defs>
    <linearGradient id="bg" x1="0" y1="0" x2="1" y2="1">
      <stop offset="0" stop-color="#111827"/>
      <stop offset="0.52" stop-color="#f59e0b"/>
      <stop offset="1" stop-color="#7c3aed"/>
    </linearGradient>
    <linearGradient id="panel" x1="0" y1="0" x2="1" y2="1">
      <stop offset="0" stop-color="#ffffff" stop-opacity="0.96"/>
      <stop offset="1" stop-color="#f8fafc" stop-opacity="0.9"/>
    </linearGradient>
    <filter id="shadow" x="-20%" y="-20%" width="140%" height="140%">
      <feDropShadow dx="0" dy="22" stdDeviation="24" flood-color="#020617" flood-opacity="0.24"/>
    </filter>
  </defs>
  <rect width="1200" height="630" fill="url(#bg)"/>
  <path d="M0 500 C190 420 320 610 520 522 C750 422 862 402 1200 484 L1200 630 L0 630 Z" fill="#ffffff" opacity="0.14"/>
  <path d="M860 62 L1128 330 L1054 404 L786 136 Z" fill="#ffffff" opacity="0.10"/>
  <circle cx="1035" cy="116" r="82" fill="#ffffff" opacity="0.10"/>
  <g opacity="0.28" stroke="#ffffff" stroke-width="2">
    <path d="M78 122 H336"/>
    <path d="M78 172 H272"/>
    <path d="M78 222 H392"/>
    <path d="M78 272 H302"/>
  </g>
  <rect x="90" y="96" width="1020" height="438" rx="34" fill="url(#panel)" filter="url(#shadow)"/>
  <rect x="132" y="132" width="300" height="28" rx="14" fill="#f59e0b" opacity="0.18"/>
  <rect x="132" y="178" width="420" height="34" rx="17" fill="#0f172a" opacity="0.10"/>
  <rect x="132" y="236" width="514" height="18" rx="9" fill="#475569" opacity="0.18"/>
  <rect x="132" y="268" width="468" height="18" rx="9" fill="#475569" opacity="0.14"/>
  <text x="132" y="357" font-family="Inter, Arial, sans-serif" font-size="58" font-weight="800" fill="#111827">Terms and Conditions</text>
  <text x="134" y="410" font-family="Inter, Arial, sans-serif" font-size="25" font-weight="500" fill="#475569">Website terms, content use, licenses, and links</text>
  <g transform="translate(760 158)">
    <rect x="62" y="42" width="222" height="286" rx="18" fill="#0f172a"/><rect x="94" y="84" width="156" height="18" rx="9" fill="#fff" opacity="0.82"/><rect x="94" y="128" width="136" height="14" rx="7" fill="#fff" opacity="0.56"/><rect x="94" y="166" width="156" height="14" rx="7" fill="#fff" opacity="0.56"/><rect x="94" y="204" width="112" height="14" rx="7" fill="#fff" opacity="0.56"/><circle cx="242" cy="278" r="38" fill="#f59e0b"/><path d="M224 278 h36" stroke="#fff" stroke-width="10" stroke-linecap="round"/>
  </g>
  <rect x="132" y="456" width="210" height="48" rx="24" fill="#f59e0b"/>
  <text x="164" y="488" font-family="Inter, Arial, sans-serif" font-size="18" font-weight="800" fill="#ffffff">SPURNO ARTICLE</text>
</svg>
