<?xml version="1.0" encoding="UTF-8"?>
<svg id="Layer_1" data-name="Layer 1" xmlns="http://www.w3.org/2000/svg" viewBox="0 0 800 800">
  <defs>
    <style>
      .cls-1 {
        fill: #d11818;
      }
    </style>
  </defs>
  <path class="cls-1" d="m394.34,107h-.82c-99.06,0-179.65,80.56-179.65,179.59,0,64.91,29.56,150.58,87.86,254.62,43.22,77.14,87.05,136.21,87.49,136.8,1.22,1.64,3.14,2.6,5.18,2.6.06,0,.12,0,.18,0,2.1-.06,4.04-1.13,5.21-2.89.43-.65,43.95-66.37,86.88-146.75,57.95-108.49,87.33-190.72,87.33-244.39,0-99.03-80.6-179.59-179.66-179.59Zm82.93,183.98c0,45.95-37.38,83.33-83.34,83.33s-83.33-37.38-83.33-83.33,37.38-83.33,83.33-83.33,83.34,37.38,83.34,83.33Z"/>
</svg>